<svg width="65" height="65" viewBox="0 0 65 65" fill="none" xmlns="http://www.w3.org/2000/svg">
<path d="M24.4714 55.9998H19.503C18.545 55.7092 17.675 55.2463 17.3216 54.2643C17.0962 53.6373 17.0868 52.9295 17.0047 52.2557C16.9788 52.0365 16.9659 51.9041 16.7123 51.8162C14.2692 51.0158 13.013 49.2732 13.0118 46.6998C13.0118 41.9998 13.0118 37.299 13.0118 32.5975V31.9998C12.6678 31.9998 12.3755 31.9998 12.0831 31.9998C10.2916 31.9635 9.03655 30.7107 9.00837 28.9084C8.9978 28.2369 8.99663 27.5643 9.00837 26.8939C9.02626 25.8568 9.37075 24.8515 9.99301 24.0207C10.6153 23.1899 11.4837 22.5756 12.4753 22.265C12.9449 22.1221 13.02 21.9135 13.0188 21.4834C13.0059 18.5631 12.9965 15.6428 13.0329 12.7225C13.0505 11.3162 13.6974 10.1889 14.7259 9.24903C15.4784 8.56231 16.3859 8.23301 17.3463 8.00098H48.6564C48.6798 8.01973 48.7033 8.05254 48.7291 8.05605C51.0361 8.34199 53.1259 10.5416 53.0143 13.476C52.9122 16.1713 53.0003 18.8818 52.9838 21.5842C52.9838 21.9522 53.066 22.1326 53.4464 22.2346C54.4103 22.49 55.171 23.0666 55.8273 23.8131C56.4836 24.5596 56.7665 25.4467 57.0013 26.376V29.4697C56.9757 29.5068 56.9533 29.546 56.9344 29.5869C56.4249 31.2521 55.4317 31.9928 53.7023 31.9963H52.9979V32.6279C52.9979 37.3467 52.9979 42.0654 52.9979 46.7842C52.9979 49.2603 51.6595 51.0896 49.3455 51.7986C49.0907 51.876 49.0285 51.9908 49.0027 52.2486C48.9358 52.9248 48.9158 53.6326 48.6892 54.2596C48.337 55.2416 47.4659 55.7057 46.5067 55.9963H41.5324C41.4793 55.9662 41.424 55.9404 41.3668 55.9189C39.8077 55.4631 39.0129 54.4154 39.0012 52.8006C39.0012 52.5428 39.0012 52.2838 39.0012 52.0236H27.0026C27.0179 52.2187 27.0179 52.4146 27.0026 52.6096C26.904 53.1861 26.8688 53.7932 26.6563 54.3275C26.2689 55.2908 25.413 55.7244 24.4714 55.9998ZM33.0254 19.9998H20.3283C18.2433 19.9998 17.0011 21.2338 16.9988 23.315C16.9941 26.44 16.9941 29.565 16.9988 32.69C16.9935 33.0486 17.0329 33.4064 17.1162 33.7553C17.4907 35.1885 18.6694 36.0088 20.3271 36.0088C28.7754 36.0088 37.2241 36.0088 45.6732 36.0088C46.0474 36.0153 46.4208 35.9723 46.7838 35.8811C48.1926 35.4979 49.0003 34.3447 49.0039 32.7416C49.0093 29.5869 49.0093 26.4318 49.0039 23.2764C49.0073 22.9334 48.9678 22.5913 48.8865 22.258C48.5225 20.8588 47.3602 20.0115 45.8176 20.0092C41.5527 19.999 37.2887 19.9959 33.0254 19.9998ZM33.0489 12.0064C30.1733 12.0064 27.2985 12.0064 24.4245 12.0064C23.5346 12.0064 22.6423 11.9807 21.7548 12.0357C20.5737 12.1096 19.7249 12.7506 19.2623 13.817C18.7997 14.8834 18.9394 15.8971 19.6427 16.8217C20.3248 17.7205 21.2746 18.0088 22.3629 18.0076C29.4556 18.0029 36.5483 18.0029 43.6409 18.0076C43.7348 18.0076 43.8288 18.0076 43.9227 18.0076C46.1439 17.9092 47.5211 15.9639 46.7944 13.9506C46.3529 12.7283 45.2599 12.0146 43.7818 12.0123C40.2042 12.0045 36.6265 12.0025 33.0489 12.0064ZM21.979 45.9908C22.7739 45.9972 23.5388 45.6881 24.1054 45.1315C24.6721 44.575 24.994 43.8165 25.0003 43.023C25.0067 42.2296 24.6971 41.4661 24.1395 40.9005C23.5819 40.3349 22.8221 40.0136 22.0271 40.0072C20.3964 39.9768 19.0181 41.349 19.0169 43.0037C19.016 43.7905 19.3269 44.5458 19.8819 45.1046C20.4369 45.6633 21.1908 45.9803 21.979 45.9861V45.9908ZM46.9857 43.0283C46.992 42.2358 46.6825 41.4732 46.1255 40.9084C45.5684 40.3436 44.8094 40.0228 44.0154 40.0166C43.2214 40.0104 42.4575 40.3193 41.8917 40.8753C41.3258 41.4313 41.0044 42.1889 40.9982 42.9814C40.97 44.6127 42.3413 45.9908 43.9955 45.9908C44.7863 45.993 45.5456 45.6817 46.1065 45.1253C46.6674 44.5689 46.9841 43.813 46.9869 43.0236L46.9857 43.0283Z" fill="#1AA4B1"/>
</svg>
