<svg width="22" height="14" viewBox="0 0 22 14" fill="none" xmlns="http://www.w3.org/2000/svg">
<g clip-path="url(#clip0_1_10395)">
<path d="M-0.000879467 0.819746C0.129246 0.402673 0.350874 0.0894894 0.778126 0.0182079C1.13475 -0.0409405 1.41622 0.106931 1.6549 0.393195C2.92598 1.91741 4.19881 3.43972 5.47337 4.96015C7.27214 7.11073 9.07057 9.26156 10.8686 11.4126C10.9066 11.4581 10.9358 11.512 10.9814 11.5802C11.0757 11.4699 11.1432 11.3926 11.2089 11.3148C14.2431 7.68755 17.2786 4.06243 20.3155 0.439456C20.4732 0.251989 20.673 0.112551 20.8952 0.0348953C21.2779 -0.0883307 21.6686 0.126652 21.8666 0.493297C22.0711 0.872454 22.0437 1.32479 21.7622 1.66868C20.988 2.60937 20.2049 3.54172 19.4238 4.47445C16.893 7.50189 14.3622 10.5296 11.8314 13.5575C11.6261 13.8036 11.3996 13.9792 11.0809 13.9981C10.7267 14.019 10.4438 13.8935 10.2041 13.6053C8.82842 11.9527 7.45017 10.303 6.06937 8.65617C4.20287 6.42496 2.33833 4.1921 0.475776 1.9576C0.288246 1.7301 0.157428 1.45029 0.000165678 1.19435L-0.000879467 0.819746Z" fill="#1AA4B1"/>
</g>
<defs>
<clipPath id="clip0_1_10395">
<rect width="14" height="22" fill="white" transform="translate(22) rotate(90)"/>
</clipPath>
</defs>
</svg>
