<svg width="32" height="32" viewBox="0 0 32 32" fill="none" xmlns="http://www.w3.org/2000/svg">
<path fill-rule="evenodd" clip-rule="evenodd" d="M15.5593 2.03997C11.5892 2.37621 8.05614 4.74583 6.26034 8.27663C5.32173 10.1221 5 11.479 5 13.592C5 14.8041 5.0337 15.2047 5.19807 15.9475C5.56547 17.6072 6.25478 19.1576 7.20168 20.4537C7.52145 20.8914 9.35009 22.8015 12.1058 25.5759L16.5 30L20.8942 25.5759C23.6499 22.8015 25.4786 20.8914 25.7983 20.4537C26.7452 19.1576 27.4345 17.6072 27.8019 15.9475C27.9663 15.2047 28 14.8041 28 13.592C28 11.479 27.6783 10.1221 26.7397 8.27663C24.6382 4.14466 20.1657 1.64979 15.5593 2.03997ZM18.4302 6.12066C21.6323 6.92405 23.9738 9.79733 24.1688 13.1625C24.3733 16.6907 22.1771 19.848 18.7236 20.9905C18.0392 21.2168 17.909 21.2309 16.5 21.2309C15.091 21.2309 14.9608 21.2168 14.2764 20.9905C10.823 19.848 8.62665 16.6907 8.83122 13.1625C8.99774 10.29 10.6696 7.81308 13.2635 6.59589C14.9127 5.82205 16.6158 5.66544 18.4302 6.12066ZM15.2172 8.61879C13.364 9.11859 12.0202 10.5023 11.5342 12.4114C11.1736 13.8272 11.419 15.1588 12.2856 16.4892C14.2269 19.4699 18.6974 19.4717 20.7238 16.4927C22.7227 13.5542 21.2106 9.52501 17.763 8.60316C17.1821 8.44784 15.8201 8.45617 15.2172 8.61879Z" fill="#1AA4B1"/>
</svg>
