<svg width="90" height="80" viewBox="0 0 90 80" fill="none" xmlns="http://www.w3.org/2000/svg">
<path d="M77.9987 33.6435V55.2683C76.6918 55.3278 75.3591 55.2377 74.085 55.4706C68.7715 56.443 65.1317 60.853 65.111 66.198C65.111 66.7828 65.111 67.3676 65.111 67.9456H24.9346C24.9209 67.8896 24.9106 67.8328 24.9036 67.7756C24.9036 67.1823 24.9035 66.5856 24.8949 65.994C24.7968 62.4238 23.3109 59.5337 20.4183 57.3781C18.5677 56.0002 16.3102 55.2602 13.9925 55.2717C13.3382 55.2717 12.6822 55.2717 12.0469 55.2717V33.5976C15.7384 33.9019 19.0391 33.0876 21.6889 30.4457C24.3388 27.8038 25.1653 24.5516 24.8502 20.8829H32.7515V16.8129C32.7515 13.865 34.6334 12.0068 37.6156 12.0068C42.4917 12.0068 47.3702 12.0068 52.2509 12.0068C55.419 12.0068 57.2441 13.8123 57.2441 16.937C57.2441 18.2444 57.2441 19.5534 57.2441 20.9288H65.1093C65.1093 21.6955 65.0989 22.3942 65.1093 23.0895C65.1816 27.4995 68.181 31.5507 72.3959 33.0196C74.2296 33.652 76.1047 33.6571 77.9987 33.6435ZM55.9596 60.887C56.159 60.8529 56.3558 60.8052 56.5485 60.7442C58.885 59.9111 61.2232 59.0815 63.551 58.2247C64.7839 57.7708 65.2436 56.7983 64.7993 55.5828C63.3806 51.7033 61.9504 47.8288 60.5086 43.9595C60.0403 42.7014 59.0623 42.2492 57.7934 42.698C55.4552 43.5277 53.1215 44.3686 50.7925 45.2209C49.651 45.6374 49.193 46.6303 49.5873 47.7812C49.7594 48.3031 49.9626 48.8166 50.1537 49.3334C51.4049 52.7006 52.6515 56.0758 53.8935 59.4589C54.2551 60.4144 54.9059 60.8904 55.9683 60.8785L55.9596 60.887ZM37.4365 35.8383C37.7447 36.3755 37.9272 36.9178 38.2888 37.2884C40.0106 39.0582 41.7892 40.7872 43.5592 42.5178C44.4356 43.3764 45.5462 43.3934 46.4209 42.5433C48.2115 40.8025 49.9907 39.0457 51.7584 37.2731C52.6538 36.3721 52.6469 35.2994 51.743 34.3949C49.9936 32.6416 48.2316 30.903 46.457 29.1792C45.5462 28.2951 44.4666 28.3036 43.5472 29.1961C41.772 30.9217 40.0055 32.6558 38.2733 34.4221C37.9169 34.7876 37.7396 35.3096 37.4365 35.8383ZM30.8214 42.545C29.6762 42.5457 28.5568 42.8813 27.6046 43.5094C26.6523 44.1375 25.9098 45.03 25.4707 46.0743C25.0316 47.1187 24.9156 48.268 25.1373 49.3773C25.359 50.4867 25.9085 51.5064 26.7165 52.3077C27.5245 53.109 28.5547 53.6561 29.6773 53.88C30.7998 54.1038 31.9643 53.9944 33.0239 53.5654C34.0836 53.1365 34.9908 52.4073 35.6311 51.4699C36.2715 50.5325 36.6163 49.4288 36.6221 48.298C36.6239 47.5442 36.4753 46.7974 36.1848 46.1002C35.8942 45.4031 35.4674 44.7693 34.9287 44.2351C34.3901 43.7008 33.7501 43.2766 33.0453 42.9866C32.3406 42.6966 31.5849 42.5466 30.8214 42.545ZM53.3769 20.8795C53.3769 19.5194 53.3769 18.1849 53.3769 16.8554C53.3769 15.9748 53.2185 15.8201 52.3318 15.8201H37.6569C37.5278 15.8201 37.3608 15.7725 37.2781 15.8337C37.044 16.0037 36.6652 16.2162 36.6583 16.4219C36.6049 17.8975 36.629 19.3749 36.629 20.8812L53.3769 20.8795Z" fill="#1AA4B1"/>
<path d="M77.9988 29.8167C76.5008 29.8014 75.0011 29.912 73.5497 29.3543C72.2395 28.8571 71.1072 27.9889 70.2949 26.8586C69.4825 25.7284 69.0263 24.3865 68.9834 23.0012C68.968 22.3212 68.9834 21.6531 68.9834 20.9611C70.7414 20.9611 72.4649 20.8234 74.1488 20.9985C76.079 21.1974 77.2911 22.4266 77.8542 24.2609C77.8903 24.3783 77.9471 24.4871 77.9936 24.601L77.9988 29.8167Z" fill="#1AA4B1"/>
<path d="M77.9982 64.3041C77.9173 64.5166 77.826 64.7291 77.7589 64.945C77.1683 66.6723 75.5928 67.9133 73.7729 67.9745C72.2078 68.0272 70.6409 67.9847 69.0775 67.9847C68.2166 62.8641 71.5604 59.3722 75.6789 59.1036C76.4503 59.0543 77.2285 59.09 77.9982 59.0849V64.3041Z" fill="#1AA4B1"/>
<path d="M12.0914 29.7573C12.0914 28.0266 11.9416 26.2823 12.131 24.5755C12.2441 23.6256 12.69 22.7448 13.3915 22.0853C14.093 21.4259 15.006 21.0294 15.9723 20.9645C17.627 20.8336 19.3023 20.939 20.9655 20.939C21.73 26.5815 17.8732 30.507 12.0914 29.7573Z" fill="#1AA4B1"/>
<path d="M12.0227 59.1443C17.498 58.4643 21.6441 61.8202 21.0002 67.9387C20.8637 67.9647 20.7257 67.9818 20.587 67.9897C19.194 67.9897 17.7994 68.0118 16.4064 67.9897C14.1027 67.9421 12.1467 66.135 12.0382 63.8841C11.9625 62.3166 12.0227 60.7492 12.0227 59.1443Z" fill="#1AA4B1"/>
<path d="M53.8672 48.1909L57.4968 46.8818C58.5298 49.6597 59.5405 52.4189 60.5839 55.2461L56.9544 56.562L53.8672 48.1909Z" fill="#1AA4B1"/>
<path d="M45.0595 33.3032C45.8998 34.1346 46.7813 35.0033 47.6233 35.8448L45.0785 38.3558L42.5078 35.8057L45.0595 33.3032Z" fill="#1AA4B1"/>
<path d="M30.8471 50.1747C30.4642 50.1787 30.0887 50.0704 29.7684 49.8633C29.448 49.6563 29.1972 49.3599 29.0477 49.0118C28.8983 48.6637 28.857 48.2797 28.9291 47.9084C29.0011 47.5371 29.1833 47.1953 29.4524 46.9264C29.7216 46.6576 30.0656 46.4737 30.4408 46.3982C30.816 46.3228 31.2054 46.3591 31.5596 46.5026C31.9139 46.6461 32.2169 46.8903 32.4303 47.2042C32.6438 47.518 32.7579 47.8875 32.7582 48.2655C32.7534 48.7666 32.5512 49.2461 32.1945 49.6025C31.8377 49.9589 31.3544 50.1641 30.8471 50.1747Z" fill="#1AA4B1"/>
</svg>
