<svg width="32" height="32" viewBox="0 0 32 32" fill="none" xmlns="http://www.w3.org/2000/svg">
<path d="M2.00808 10.4646C2.00808 9.35604 1.98881 8.24749 2.01246 7.13893C2.05276 5.22284 3.34671 3.64784 5.25391 3.22318C8.52165 2.4958 11.7964 1.80082 15.0659 1.09135C15.9008 0.909718 16.7111 1.03848 17.5285 1.21841C20.5553 1.88269 23.5848 2.52479 26.6063 3.19845C28.7168 3.67001 29.9757 5.22966 29.9809 7.33506C29.9862 9.32875 30.0309 11.3241 29.9643 13.3153C29.7742 19.0226 27.4333 23.751 23.0214 27.5005C21.4366 28.8487 19.6416 29.8754 17.6958 30.6556C16.5675 31.1093 15.4522 31.122 14.3238 30.6556C8.33329 28.1605 4.4453 23.8619 2.65988 17.7597C2.15263 16.0159 1.97479 14.226 2.00283 12.4156C2.01334 11.765 2.00283 11.1152 2.00283 10.4646H2.00808ZM14.959 16.635C14.521 16.177 14.1872 15.8215 13.8438 15.4787C13.5003 15.1359 13.1254 14.7965 12.7688 14.4477C12.3816 14.0742 11.9225 13.9199 11.3916 14.0512C10.3071 14.3189 9.97592 15.5861 10.7898 16.3783C11.771 17.3359 12.7688 18.2765 13.7588 19.2247C14.5639 19.9922 15.2831 19.9964 16.0882 19.2247C18.1079 17.2919 20.1266 15.357 22.1445 13.4202C22.2847 13.2863 22.4073 13.1277 22.5685 13.0219C23.032 12.7167 23.1274 12.2758 23.0433 11.7906C23.0088 11.5396 22.8979 11.3044 22.7249 11.1152C22.5519 10.926 22.3248 10.7915 22.0727 10.7289C21.5391 10.5763 21.0608 10.7008 20.6569 11.0845C18.9579 12.6979 17.2595 14.3116 15.5617 15.9255C15.3594 16.1182 15.1982 16.351 14.959 16.635Z" fill="#1AA4B1"/>
</svg>
