<svg width="90" height="80" viewBox="0 0 90 80" fill="none" xmlns="http://www.w3.org/2000/svg">
<path d="M78.0016 62.9507C77.7272 64.0572 77.3833 65.1216 76.5971 66.0019C75.6915 67.0179 74.5937 67.8174 73.2505 67.8626C70.1477 67.966 67.0385 67.8949 64.0793 67.8949C64.1149 65.9906 64.1762 64.0459 64.1826 62.1011C64.1988 57.333 64.1826 52.5713 64.1826 47.795C64.1826 46.0183 64.0584 44.2771 63.4756 42.5892C63.4499 42.4598 63.4359 42.3285 63.4336 42.1967C66.178 42.3582 68.9386 41.8009 71.5716 42.7717C75.1232 44.0832 77.2396 46.6482 77.8821 50.4052C77.9095 50.5067 77.9468 50.6052 77.9935 50.6992L78.0016 62.9507Z" fill="#1AA4B1"/>
<path d="M45.0028 67.9921H31.9265C30.3444 67.9921 29.6551 67.3008 29.6535 65.7179C29.6535 59.4669 29.6422 53.2144 29.6535 46.9618C29.6648 42.2777 32.5997 38.5627 37.1296 37.5031C37.8189 37.3528 38.5227 37.2791 39.2283 37.2834C43.0704 37.2624 46.9158 37.2511 50.758 37.2834C55.3686 37.3173 59.0639 40.2651 60.1004 44.7344C60.2634 45.489 60.3414 46.2594 60.3328 47.0313C60.3522 53.2844 60.3554 59.5369 60.3425 65.789C60.3425 67.2847 59.6306 67.9954 58.134 67.997C53.7602 67.997 49.3831 67.9954 45.0028 67.9921Z" fill="#1AA4B1"/>
<path d="M45.0198 12C51.2949 12.0129 56.4512 17.1445 56.4608 23.3874C56.4584 26.4307 55.2543 29.3499 53.1109 31.5093C50.9675 33.6687 48.0583 34.8934 45.0166 34.9169C38.7319 34.9524 33.4917 29.669 33.5433 23.3518C33.579 20.3296 34.8037 17.4431 36.952 15.3182C39.1003 13.1933 41.999 12.0011 45.0198 12Z" fill="#1AA4B1"/>
<path d="M25.9739 67.9936C23.9092 67.9936 21.7653 68.0146 19.6198 67.9839C18.5091 67.9694 17.3597 68.0291 16.2942 67.7659C13.6208 67.1052 12.0194 64.8907 12.0065 62.0625C11.9919 58.7303 12.0065 55.3997 12.0065 52.0691C12.0161 46.4804 16.0117 42.3664 21.5942 42.2242C23.2392 42.1822 24.8858 42.2242 26.6148 42.2242C26.4695 42.7395 26.292 43.1594 26.2371 43.5956C26.0757 44.8054 25.848 46.0184 25.8383 47.2363C25.7963 52.8654 25.8109 58.4961 25.827 64.1267C25.827 65.3802 25.919 66.64 25.9739 67.9936Z" fill="#1AA4B1"/>
<path d="M33.4425 31.2728C33.3876 36.0103 29.5132 39.8674 24.8557 39.8206C20.1176 39.7721 16.285 35.9069 16.3206 31.2163C16.3262 30.0865 16.5551 28.9691 16.994 27.9282C17.4329 26.8872 18.0731 25.9434 18.8779 25.151C19.6827 24.3585 20.6361 23.7331 21.6833 23.3107C22.7305 22.8882 23.8509 22.6771 24.98 22.6895C29.6907 22.7492 33.4909 26.6048 33.4425 31.2728Z" fill="#1AA4B1"/>
<path d="M73.6887 31.2276C73.7081 35.9295 69.8691 39.7883 65.1406 39.8206C60.4719 39.8513 56.6103 35.9957 56.5667 31.2599C56.5248 26.5628 60.3734 22.6992 65.1051 22.6895C67.3744 22.6847 69.5528 23.5812 71.1621 25.182C72.7715 26.7828 73.6801 28.9571 73.6887 31.2276Z" fill="#1AA4B1"/>
</svg>
