<svg width="14" height="22" viewBox="0 0 14 22" fill="none" xmlns="http://www.w3.org/2000/svg">
<g clip-path="url(#clip0_1_9584)">
<path d="M0.819747 22.0014C0.402674 21.8712 0.0894904 21.6496 0.0182089 21.2224C-0.0409396 20.8657 0.106932 20.5843 0.393196 20.3456C1.91741 19.0745 3.43973 17.8017 4.96015 16.5271C7.11073 14.7283 9.26156 12.9299 11.4126 11.1318C11.4581 11.0939 11.512 11.0647 11.5802 11.0191C11.4699 10.9248 11.3926 10.8573 11.3148 10.7916C7.68755 7.75743 4.06243 4.7219 0.439456 1.68498C0.25199 1.52732 0.112551 1.32754 0.0348954 1.10534C-0.0883307 0.72262 0.126652 0.331899 0.493297 0.13393C0.872454 -0.0706503 1.32479 -0.0431642 1.66868 0.238307C2.60937 1.01244 3.54172 1.79562 4.47445 2.57671C7.50189 5.10752 10.5296 7.63833 13.5575 10.1691C13.8036 10.3744 13.9792 10.6009 13.9981 10.9196C14.019 11.2738 13.8935 11.5567 13.6053 11.7964C11.9527 13.1721 10.303 14.5503 8.65617 15.9311C6.42496 17.7976 4.1921 19.6622 1.9576 21.5247C1.7301 21.7122 1.45029 21.8431 1.19435 22.0003L0.819747 22.0014Z" fill="black"/>
</g>
<defs>
<clipPath id="clip0_1_9584">
<rect width="14" height="22" fill="white"/>
</clipPath>
</defs>
</svg>
