<svg width="65" height="65" viewBox="0 0 65 65" fill="none" xmlns="http://www.w3.org/2000/svg">
<path d="M9.68692 4H38.7453C38.7914 4.0282 38.8345 4.07719 38.8821 4.08312C41.6331 4.44828 44.4645 6.94351 44.405 10.9261C44.353 14.4129 44.3946 17.9027 44.3946 21.388V22.0129L37.1081 24.4918C36.543 23.3295 35.6017 22.9926 34.3987 22.997C27.591 23.0223 20.7847 23.0089 13.977 23.0104C13.7555 23.0104 13.5309 23.0104 13.3108 23.0223C12.9683 23.0513 12.6363 23.1548 12.338 23.3253C12.0398 23.4959 11.7825 23.7295 11.5842 24.0098C11.3859 24.29 11.2513 24.6102 11.1899 24.9478C11.1286 25.2854 11.1419 25.6324 11.229 25.9643C11.5368 27.1043 12.4186 27.7381 13.7332 27.7455C18.6305 27.7455 23.5269 27.7455 28.4222 27.7455H28.9233C28.3627 28.5516 27.7337 29.2581 27.3411 30.076C26.9486 30.8939 26.7537 31.8424 26.4786 32.7197C26.1976 32.6603 25.8377 32.5193 25.4779 32.5178C21.4539 32.503 17.4285 32.4911 13.403 32.5178C12.1182 32.5267 11.1189 33.6548 11.1487 34.9403C11.1784 36.2763 12.2357 37.2559 13.6945 37.2604C16.9957 37.2703 20.297 37.2703 23.5982 37.2604C24.5871 37.2604 25.5745 37.1847 26.5902 37.1416C26.5902 38.7967 26.614 40.5557 26.5902 42.3191C26.5277 46.327 27.5835 50.0082 29.6312 53.4282C29.71 53.5588 29.771 53.6998 29.8542 53.8602C29.7263 53.872 29.6713 53.8809 29.6163 53.8809C23.222 53.8809 16.8173 53.9017 10.4185 53.872C6.93438 53.8572 4.03911 50.9508 4.03465 47.4625C4.01681 35.1254 4.02025 22.7892 4.04504 10.4541C4.05247 7.79703 5.38339 5.83468 7.77158 4.665C8.36045 4.35328 9.04154 4.21227 9.68692 4ZM18.224 18.25C19.7617 18.25 21.2993 18.25 22.8339 18.25C24.3031 18.25 25.3708 17.2406 25.3723 15.875C25.3738 14.5094 24.309 13.5 22.8354 13.5C19.778 13.4901 16.7207 13.4901 13.6633 13.5C12.1896 13.5 11.1264 14.5198 11.1264 15.875C11.1264 17.2302 12.1956 18.25 13.6633 18.25C15.1905 18.25 16.7102 18.25 18.224 18.25Z" fill="#1AA4B1"/>
<path d="M45.6376 60.9999C42.1356 59.4324 38.9965 57.335 36.3525 54.5399C33.7427 51.779 31.9538 48.5935 31.4542 44.7728C31.3592 44.0373 31.3096 43.2967 31.3055 42.5551C31.2906 39.5507 31.298 36.5463 31.3055 33.542C31.3055 32.0368 31.8408 31.3021 33.2669 30.8181C37.2274 29.4733 41.1864 28.125 45.1439 26.7732C45.7919 26.5368 46.5022 26.5326 47.1529 26.7613C51.1808 28.1359 55.2112 29.5065 59.2441 30.8731C60.1706 31.1848 60.7029 31.832 61.0003 32.7226V44.0781C60.9605 44.1588 60.9306 44.244 60.9111 44.3319C60.5661 47.7593 59.1653 50.7355 56.9927 53.3599C54.1777 56.7606 50.6639 59.2291 46.6414 60.9999H45.6376ZM45.3402 44.274C45.288 44.2551 45.2381 44.2302 45.1915 44.1998C44.338 43.3507 43.4873 42.4957 42.6308 41.6496C41.5571 40.5898 40.0865 40.5408 39.1214 41.5279C38.1563 42.515 38.2128 43.9356 39.2701 44.9969C40.7571 46.4961 42.2516 47.9909 43.7535 49.4812C44.9759 50.6984 46.5254 50.5856 47.5797 49.2051C48.2533 48.3145 48.918 47.4239 49.5813 46.5332C51.2378 44.3245 52.9033 42.1217 54.5465 39.9025C55.4135 38.7299 55.1488 37.2084 53.98 36.4439C52.9063 35.7403 51.5561 35.9986 50.7322 37.0896C48.9344 39.4765 47.1499 41.8649 45.3432 44.274H45.3402Z" fill="#1AA4B1"/>
</svg>
