<svg width="39" height="39" viewBox="0 0 39 39" fill="none" xmlns="http://www.w3.org/2000/svg">
<g clip-path="url(#clip0_1_9923)">
<path d="M39.001 13.8673C38.8163 14.6219 38.4764 15.2695 37.7385 15.6215C36.8701 16.0374 36.0446 15.9544 35.2772 15.3678C35.1476 15.2663 35.0248 15.1563 34.9096 15.0387C31.2572 11.3886 27.6073 7.73777 23.9599 4.08635C23.103 3.22786 22.8878 2.22629 23.3544 1.29055C24.0209 -0.0515509 25.7452 -0.436915 26.8611 0.565604C27.8219 1.42981 28.7093 2.37796 29.6224 3.29081C29.8128 3.48636 29.9908 3.7048 30.1994 3.94136C31.0173 3.12293 31.7799 2.36365 32.5359 1.59865C32.8064 1.32489 33.1215 1.10073 33.5052 1.17131C33.8131 1.22118 34.1012 1.35556 34.3374 1.55954C35.3914 2.56778 36.415 3.60845 37.4424 4.64436C38.0041 5.21096 38.0013 5.84719 37.4424 6.41665C36.6806 7.19215 35.9008 7.95906 35.1077 8.75078C35.2134 8.86238 35.3038 8.96445 35.4 9.05983C36.2246 9.88589 37.0396 10.7215 37.8756 11.5323C38.405 12.0435 38.862 12.5863 39.0029 13.3341L39.001 13.8673Z" fill="#1AA4B1"/>
<path d="M-0.00104992 25.1394C0.183667 24.3849 0.523584 23.7382 1.26055 23.3852C2.12795 22.9703 2.95251 23.0523 3.7209 23.6361C3.83144 23.7211 3.93611 23.8135 4.03416 23.9127C7.72087 27.5966 11.406 31.2814 15.0896 34.9671C15.9465 35.8256 16.1245 36.8749 15.5856 37.8383C15.3209 38.3223 14.8831 38.688 14.3602 38.8618C14.2431 38.9028 14.1298 38.9572 14.0146 39.0011H13.2529C12.554 38.8418 12.0427 38.403 11.558 37.9041C10.7192 37.0399 9.85749 36.1957 9.00437 35.3449C8.9282 35.2686 8.84155 35.2018 8.74729 35.1197C7.9551 35.9134 7.18957 36.6908 6.41262 37.4558C5.85657 38.0023 5.22053 38.0043 4.66733 37.4558C3.62124 36.4231 2.58086 35.384 1.54619 34.3385C1.00347 33.7891 1.01489 33.151 1.56428 32.5929C2.25935 31.888 2.96299 31.1927 3.65901 30.4944C3.73613 30.4162 3.80469 30.3304 3.89229 30.2321C2.95823 29.3002 2.05273 28.3768 1.12344 27.4783C0.594043 26.9661 0.137012 26.4243 -0.00390625 25.6764L-0.00104992 25.1394Z" fill="#1AA4B1"/>
<path d="M35.7461 20.0657C35.7156 21.01 35.2891 21.7245 34.4302 22.1203C33.5904 22.5085 32.7754 22.4065 32.0394 21.8246C31.9105 21.7219 31.7881 21.6114 31.6728 21.4936C26.9438 16.7675 22.2148 12.0401 17.4858 7.31146C16.5879 6.41291 16.4022 5.36365 16.9602 4.38021C17.1216 4.10278 17.3397 3.86265 17.6002 3.67554C17.8607 3.48843 18.1577 3.35856 18.4718 3.29444C18.7859 3.23033 19.11 3.2334 19.4228 3.30347C19.7356 3.37354 20.0301 3.50903 20.287 3.70105C20.447 3.82587 20.5987 3.96097 20.7412 4.10549C25.4619 8.82207 30.182 13.5396 34.9015 18.2581C35.4071 18.7617 35.7575 19.3255 35.7461 20.0657Z" fill="#1AA4B1"/>
<path d="M5.52291 16.6698C6.24749 16.6565 6.80926 16.9856 7.30342 17.4816C9.56954 19.7531 11.8382 22.023 14.1094 24.2913C16.585 26.7669 19.0606 29.2428 21.5361 31.7191C22.4188 32.6033 22.594 33.6831 22.0227 34.656C21.8578 34.9275 21.6383 35.1616 21.3782 35.3435C21.1181 35.5254 20.823 35.651 20.5118 35.7123C20.2005 35.7737 19.88 35.7695 19.5704 35.7C19.2609 35.6304 18.9692 35.4971 18.714 35.3085C18.5637 35.1924 18.4212 35.0665 18.2874 34.9317C13.5489 30.1954 8.81131 25.4578 4.07469 20.719C3.20919 19.8539 3.00257 18.8351 3.51483 17.887C3.94329 17.0981 4.62217 16.6965 5.52291 16.6698Z" fill="#1AA4B1"/>
<path d="M18.3991 25.2691L13.7031 20.5732L20.5586 13.7769L25.2546 18.4728L18.3991 25.2691Z" fill="#1AA4B1"/>
</g>
<defs>
<clipPath id="clip0_1_9923">
<rect width="39" height="39" fill="white"/>
</clipPath>
</defs>
</svg>
