<svg width="65" height="65" viewBox="0 0 65 65" fill="none" xmlns="http://www.w3.org/2000/svg">
<path d="M62.9995 53.3114C62.7459 54.3388 62.4281 55.3272 61.7014 56.1446C60.8644 57.088 59.8498 57.8305 58.6084 57.8725C55.7407 57.9684 52.8669 57.9025 50.132 57.9025C50.1648 56.1341 50.2215 54.3283 50.2275 52.5225C50.2424 48.0949 50.2275 43.6733 50.2275 39.2382C50.2275 37.5884 50.1126 35.9716 49.574 34.4042C49.5502 34.2841 49.5373 34.1622 49.5352 34.0397C52.0717 34.1897 54.6231 33.6723 57.0566 34.5737C60.3392 35.7916 62.2953 38.1734 62.8891 41.662C62.9144 41.7562 62.9489 41.8476 62.9921 41.935L62.9995 53.3114Z" fill="#1AA4B1"/>
<path d="M32.5017 57.9925H20.416C18.9538 57.9925 18.3167 57.3506 18.3152 55.8807C18.3152 50.0763 18.3047 44.2703 18.3152 38.4644C18.3256 34.1148 21.0382 30.6651 25.2249 29.6812C25.8621 29.5417 26.5126 29.4733 27.1646 29.4773C30.7157 29.4578 34.2698 29.4473 37.8209 29.4773C42.0823 29.5088 45.4976 32.246 46.4555 36.3961C46.6062 37.0967 46.6783 37.8121 46.6704 38.5289C46.6883 44.3353 46.6913 50.1413 46.6793 55.9467C46.6793 57.3356 46.0213 57.9955 44.6381 57.997C40.5957 57.997 36.5502 57.9955 32.5017 57.9925Z" fill="#1AA4B1"/>
<path d="M32.5195 6C38.3192 6.012 43.0848 10.777 43.0938 16.574C43.0915 19.4 41.9787 22.1106 39.9976 24.1158C38.0166 26.1209 35.3277 27.2582 32.5165 27.28C26.7079 27.313 21.8647 22.4069 21.9125 16.541C21.9454 13.7346 23.0774 11.0543 25.0629 9.08119C27.0484 7.10804 29.7275 6.00099 32.5195 6Z" fill="#1AA4B1"/>
<path d="M14.9173 57.9939C13.0089 57.9939 11.0274 58.0134 9.04448 57.9849C8.01794 57.9714 6.95561 58.0269 5.97085 57.7824C3.49999 57.169 2.01986 55.1127 2.00792 52.4864C1.99449 49.3922 2.00792 46.2995 2.00792 43.2068C2.01687 38.0173 5.70975 34.1972 10.8693 34.0652C12.3897 34.0262 13.9116 34.0652 15.5096 34.0652C15.3753 34.5436 15.2112 34.9336 15.1605 35.3386C15.0113 36.462 14.8009 37.5883 14.7919 38.7192C14.7531 43.9462 14.7666 49.1747 14.7815 54.4032C14.7815 55.5671 14.8665 56.737 14.9173 57.9939Z" fill="#1AA4B1"/>
<path d="M21.8192 23.8962C21.7685 28.2953 18.1875 31.877 13.8829 31.8335C9.50372 31.7885 5.96154 28.1993 5.99437 23.8438C5.99961 22.7947 6.21117 21.7571 6.6168 20.7905C7.02243 19.8239 7.61415 18.9475 8.35795 18.2117C9.10176 17.4758 9.98295 16.8951 10.9508 16.5028C11.9187 16.1106 12.9543 15.9145 13.9978 15.926C18.3517 15.9815 21.864 19.5617 21.8192 23.8962Z" fill="#1AA4B1"/>
<path d="M59.0146 23.8543C59.0325 28.2204 55.4844 31.8035 51.1141 31.8335C46.7991 31.862 43.2301 28.2819 43.1898 23.8843C43.151 19.5227 46.7081 15.935 51.0813 15.926C53.1787 15.9217 55.1921 16.7541 56.6795 18.2405C58.1669 19.727 59.0067 21.746 59.0146 23.8543Z" fill="#1AA4B1"/>
</svg>
