<svg width="39" height="39" viewBox="0 0 39 39" fill="none" xmlns="http://www.w3.org/2000/svg">
<g clip-path="url(#clip0_1_9917)">
<path d="M39.003 35.9015C38.7315 36.7189 38.1574 37.0033 37.3578 37.0016C33.0311 36.9862 28.7027 37.0016 24.3743 37.0016H24.014L23.9844 36.9177L36.425 26.0383C36.5895 26.6038 36.7277 27.1179 36.8692 27.6336C37.5547 30.1343 38.2402 32.6338 38.9257 35.1321C38.9484 35.2068 38.9753 35.2801 39.0063 35.3515L39.003 35.9015Z" fill="#1AA4B1"/>
<path d="M19.3287 1.00005C24.534 0.982911 28.5498 5.66605 27.9789 10.8752C27.7173 13.2639 26.8503 15.4127 25.6757 17.4416C24.246 19.8526 22.5045 22.0471 20.5001 23.9634C19.842 24.6025 19.1543 24.6076 18.5078 23.9736C15.9397 21.4496 13.7138 18.6513 12.2266 15.2842C11.325 13.2434 10.7723 11.1151 11.0338 8.83098C11.2549 6.90564 12.076 5.10891 13.3712 3.71614C14.6665 2.32337 16.3645 1.4114 18.205 1.12C18.6328 1.06002 19.0572 1.03089 19.3287 1.00005ZM21.7026 9.88652C21.6965 9.4331 21.5618 8.99169 21.3156 8.6177C21.0694 8.2437 20.7226 7.9538 20.3188 7.7844C19.9149 7.615 19.4721 7.57365 19.0457 7.66554C18.6194 7.75742 18.2286 7.97844 17.9225 8.30086C17.6163 8.62328 17.4085 9.03272 17.325 9.47777C17.2415 9.92281 17.2861 10.3836 17.4532 10.8024C17.6203 11.2211 17.9025 11.5791 18.2642 11.8314C18.626 12.0836 19.0513 12.219 19.4866 12.2204C20.0769 12.2145 20.641 11.9659 21.0561 11.5288C21.4711 11.0916 21.7035 10.5013 21.7026 9.88652Z" fill="#1AA4B1"/>
<path d="M2.91016 24.7669C3.19148 23.7387 3.46622 22.7106 3.73273 21.7065C3.8298 21.3518 3.92358 20.9953 4.02557 20.6406C4.24438 19.8798 4.68365 19.5011 5.43548 19.496C7.68276 19.4811 9.93114 19.4811 12.1806 19.496C12.2617 19.513 12.3387 19.547 12.4068 19.5959C12.475 19.6448 12.5329 19.7075 12.5771 19.7804C13.9298 21.7995 15.4862 23.6619 17.2197 25.3358C18.6197 26.6895 20.3587 26.6877 21.7587 25.3358C23.4867 23.6759 25.0317 21.8207 26.3651 19.8044C26.4235 19.6984 26.5094 19.6117 26.6131 19.5544C26.7167 19.4971 26.8338 19.4715 26.9508 19.4805C29.0714 19.4943 31.192 19.4805 33.3126 19.4805C34.2997 19.4805 34.7093 19.7993 34.9841 20.7931C35.2588 21.787 35.5171 22.7757 35.8066 23.761C35.8484 23.8538 35.8562 23.9593 35.8286 24.0577C35.8011 24.1561 35.74 24.2407 35.6569 24.2956C33.6038 26.0469 31.5567 27.8055 29.5156 29.5716C29.4341 29.6507 29.3352 29.7076 29.2276 29.7375C29.1201 29.7674 29.0071 29.7693 28.8986 29.743C23.836 28.7686 18.7722 27.801 13.7073 26.8402L3.19147 24.8371C3.10921 24.8303 3.02696 24.7994 2.91016 24.7669Z" fill="#1AA4B1"/>
<path d="M27.4207 31.407L23.4724 34.8598C22.7321 35.5058 21.9917 36.1569 21.2498 36.7909C21.1166 36.906 20.9519 36.9743 20.7793 36.9863C16.6905 36.9966 12.6018 36.9966 8.51301 36.9863C8.42746 36.9863 8.34851 36.9692 8.23828 36.9589V27.7485L27.4207 31.407Z" fill="#1AA4B1"/>
<path d="M2.41316 26.6382L6.36153 27.3904V36.9675C6.26447 36.9778 6.17894 36.9932 6.09339 36.9932C4.5453 36.9932 2.99557 37.0035 1.44583 36.9932C0.364967 36.9932 -0.220726 36.1912 0.0704666 35.1083C0.815721 32.3512 1.57908 29.5992 2.33585 26.8438C2.35559 26.7873 2.38191 26.729 2.41316 26.6382Z" fill="#1AA4B1"/>
</g>
<defs>
<clipPath id="clip0_1_9917">
<rect width="39" height="39" fill="white"/>
</clipPath>
</defs>
</svg>
