<svg width="39" height="39" viewBox="0 0 39 39" fill="none" xmlns="http://www.w3.org/2000/svg">
<path d="M38.999 33.9344C38.8368 34.6061 38.6336 35.2524 38.1691 35.7869C37.6339 36.4037 36.9852 36.8891 36.1916 36.9166C34.3581 36.9794 32.5208 36.9362 30.7722 36.9362C30.7932 35.78 30.8294 34.5993 30.8332 33.4185C30.8428 30.5236 30.8332 27.6326 30.8332 24.7327C30.8332 23.654 30.7598 22.5968 30.4154 21.572C30.4003 21.4935 30.392 21.4137 30.3906 21.3337C32.0123 21.4317 33.6436 21.0934 35.1994 21.6828C37.2981 22.4791 38.5487 24.0364 38.9284 26.3175C38.9446 26.3791 38.9666 26.4388 38.9942 26.496L38.999 33.9344Z" fill="#1AA4B1"/>
<path d="M19.5027 36.995H11.7758C10.8409 36.995 10.4336 36.5753 10.4327 35.6142C10.4327 31.819 10.426 28.0228 10.4327 24.2266C10.4393 21.3827 12.1736 19.1271 14.8504 18.4838C15.2577 18.3925 15.6736 18.3478 16.0905 18.3504C18.3609 18.3377 20.6332 18.3308 22.9035 18.3504C25.628 18.371 27.8116 20.1607 28.424 22.8743C28.5204 23.3324 28.5664 23.8001 28.5614 24.2688C28.5728 28.0653 28.5747 31.8615 28.5671 35.6574C28.5671 36.5655 28.1464 36.997 27.2621 36.9979C24.6775 36.9979 22.0911 36.997 19.5027 36.995Z" fill="#1AA4B1"/>
<path d="M19.5122 3C23.2202 3.00785 26.2671 6.12345 26.2728 9.91376C26.2714 11.7615 25.5599 13.5339 24.2933 14.8449C23.0268 16.156 21.3077 16.8996 19.5103 16.9138C15.7966 16.9354 12.7002 13.7276 12.7307 9.89218C12.7518 8.05724 13.4755 6.30476 14.7449 5.01462C16.0143 3.72449 17.7272 3.00065 19.5122 3Z" fill="#1AA4B1"/>
<path d="M8.25732 36.9961C7.03723 36.9961 5.77039 37.0089 4.5026 36.9902C3.84628 36.9814 3.16709 37.0177 2.53749 36.8579C0.957763 36.4568 0.0114473 35.1123 0.00381577 33.3951C-0.00476971 31.372 0.00381577 29.3498 0.00381577 27.3277C0.00953942 23.9345 2.37056 21.4367 5.66929 21.3504C6.64136 21.3249 7.61436 21.3504 8.63603 21.3504C8.55018 21.6633 8.44526 21.9183 8.41283 22.183C8.31743 22.9176 8.18291 23.654 8.17718 24.3935C8.15238 27.8111 8.16098 31.2298 8.17052 34.6484C8.17052 35.4094 8.22489 36.1743 8.25732 36.9961Z" fill="#1AA4B1"/>
<path d="M12.6723 14.7014C12.6399 17.5777 10.3505 19.9195 7.59833 19.8911C4.79851 19.8617 2.53385 17.5149 2.55483 14.667C2.55819 13.9811 2.69344 13.3027 2.95278 12.6707C3.21212 12.0387 3.59043 11.4657 4.06598 10.9845C4.54153 10.5034 5.10491 10.1237 5.72373 9.8672C6.34255 9.61072 7.00461 9.48255 7.67179 9.49006C10.4554 9.52634 12.701 11.8672 12.6723 14.7014Z" fill="#1AA4B1"/>
<path d="M36.4537 14.6738C36.4651 17.5286 34.1966 19.8714 31.4025 19.891C28.6437 19.9097 26.3619 17.5688 26.3361 14.6935C26.3113 11.8417 28.5855 9.49589 31.3815 9.49C32.7225 9.48713 34.0097 10.0314 34.9607 11.0033C35.9117 11.9752 36.4486 13.2953 36.4537 14.6738Z" fill="#1AA4B1"/>
</svg>
