<svg width="65" height="65" viewBox="0 0 65 65" fill="none" xmlns="http://www.w3.org/2000/svg">
<path d="M49.8194 15.779C49.4259 17.7765 50.2662 19.2379 51.7474 20.4461C52.2006 20.8464 52.6282 21.2756 53.0276 21.7312C54.1941 22.9301 54.8601 24.5403 54.8867 26.226C54.9132 27.9117 54.2984 29.5428 53.1702 30.779C52.4674 31.57 51.7113 32.3155 50.9535 33.0488C50.2661 33.7106 49.9912 34.5033 49.9757 35.4461C49.9568 36.7277 50.0324 38.0337 49.8039 39.2874C49.266 42.2922 46.6627 44.4311 43.6504 44.5044C42.7293 44.5271 41.8066 44.5184 40.8856 44.5149C40.4987 44.5051 40.114 44.5763 39.7554 44.7241C39.3968 44.8719 39.072 45.0931 38.8011 45.374C38.1035 46.0828 37.4127 46.797 36.7082 47.4971C33.9588 50.2348 30.0288 50.2191 27.2812 47.4604C26.6247 46.8022 25.9701 46.1439 25.3274 45.4735C25.0307 45.1583 24.6724 44.9096 24.2756 44.7434C23.8788 44.5771 23.4521 44.4969 23.023 44.5079C21.8202 44.5079 20.6087 44.5708 19.4351 44.384C16.342 43.8881 14.1476 41.2551 14.06 38.0686C14.0359 37.1758 14.0359 36.283 14.06 35.3903C14.0742 34.9649 13.9988 34.5414 13.8387 34.1481C13.6787 33.7549 13.4378 33.4009 13.1321 33.11C12.3416 32.3138 11.5357 31.5281 10.783 30.6935C9.6811 29.4796 9.07573 27.8848 9.09009 26.2334C9.10446 24.5821 9.73747 22.9984 10.8604 21.8045C11.5666 21.0468 12.3004 20.3099 13.0479 19.5941C13.3881 19.2782 13.6553 18.8898 13.8303 18.4566C14.0053 18.0234 14.0837 17.5562 14.06 17.0885C14.0394 15.9798 13.9861 14.8554 14.1339 13.7711C14.5996 10.3053 17.2064 8.02149 20.6534 7.95863C21.3614 7.94641 22.0693 7.93244 22.7756 7.95863C23.2367 7.98831 23.6984 7.91116 24.1259 7.73301C24.5533 7.55486 24.9354 7.28036 25.2432 6.93024C25.8446 6.28072 26.477 5.65914 27.1042 5.03233C29.778 2.35394 33.8179 2.32425 36.526 4.96946C37.0811 5.51247 37.6567 6.04327 38.155 6.63691C39.0039 7.6496 40.0453 8.05817 41.3409 7.96737C42.1754 7.91967 43.0123 7.93483 43.8446 8.01276C45.4522 8.14129 46.9547 8.87475 48.0582 10.0696C49.1617 11.2644 49.7866 12.8347 49.8108 14.473C49.8262 14.9078 49.8194 15.3425 49.8194 15.779ZM30.6663 29.0487L27.728 26.1102C26.776 25.1604 25.4941 25.0958 24.6349 25.953C23.7757 26.8103 23.8479 28.1024 24.8067 29.0784C26.1975 30.4985 27.5905 31.9145 28.9858 33.3265C30.097 34.4556 31.2145 34.4596 32.3384 33.3387C35.1863 30.4787 38.0313 27.6147 40.8735 24.7466C41.1478 24.4731 41.3878 24.1664 41.5883 23.8334C41.7795 23.521 41.8848 23.1622 41.893 22.7944C41.9013 22.4266 41.8124 22.0633 41.6355 21.7424C41.4586 21.4214 41.2002 21.1545 40.8873 20.9695C40.5743 20.7845 40.2183 20.6882 39.8562 20.6906C39.1689 20.6783 38.6379 20.9926 38.1602 21.4763C35.6754 24.0062 33.1786 26.517 30.6663 29.0505V29.0487Z" fill="#1AA4B1"/>
<path d="M37.0859 52.4645C38.4211 51.2161 39.6635 50.0305 40.9437 48.8799C41.1798 48.68 41.4751 48.5663 41.7823 48.5569C43.5677 48.5691 45.3444 48.5307 47.0353 47.8585C50.3896 46.5176 52.5427 44.0557 53.6064 40.4746C53.7387 40.6754 53.8452 40.8238 53.9329 40.974C55.7314 44.1634 57.53 47.3533 59.3286 50.5439C60.1551 52.0053 60.2565 53.4946 59.3767 54.9351C58.4969 56.3755 57.1101 56.9622 55.4691 56.8225C53.9982 56.6986 52.5358 56.4856 51.0013 56.2987C50.912 56.4925 50.8054 56.6986 50.7178 56.9116C50.2384 58.0744 49.7778 59.246 49.2812 60.4036C48.6042 61.975 47.4151 62.8934 45.7242 62.9947C44.0711 63.0942 42.748 62.4133 41.9008 60.9431C40.2649 58.0849 38.6531 55.2162 37.0859 52.4645Z" fill="#1AA4B1"/>
<path d="M10.6618 41.6724C11.7289 44.2634 13.3837 46.1334 15.7173 47.3696C17.5748 48.3544 19.5699 48.6617 21.6337 48.5447C21.947 48.5135 22.2632 48.5609 22.5543 48.6826C22.8455 48.8044 23.1029 48.9968 23.3039 49.2431C24.5652 50.6399 25.921 51.9407 27.6668 52.6513C27.6668 52.7665 27.6823 52.8259 27.6668 52.8486C26.1323 55.5409 24.6202 58.2455 23.053 60.9169C22.1938 62.3748 20.8655 63.054 19.209 62.9144C17.6023 62.7782 16.4596 61.8842 15.8101 60.3879C15.2946 59.1971 14.779 58.0011 14.303 56.7876C14.1175 56.3057 13.8666 56.187 13.3889 56.2638C12.2479 56.4384 11.0983 56.5781 9.95215 56.7387C8.21144 56.9849 6.74395 56.4803 5.74042 54.9927C4.73689 53.5051 4.79014 51.9319 5.67854 50.3797C7.21705 47.6885 8.75329 44.9974 10.2872 42.3062C10.392 42.1246 10.5055 41.9412 10.6618 41.6724Z" fill="#1AA4B1"/>
</svg>
