<svg width="90" height="80" viewBox="0 0 90 80" fill="none" xmlns="http://www.w3.org/2000/svg">
<path d="M22.6869 12H51.7453C51.7914 12.0282 51.8345 12.0772 51.8821 12.0831C54.6331 12.4483 57.4645 14.9435 57.405 18.9261C57.353 22.4129 57.3946 25.9027 57.3946 29.388V30.0129L50.1081 32.4918C49.543 31.3295 48.6017 30.9926 47.3987 30.997C40.591 31.0223 33.7847 31.0089 26.977 31.0104C26.7555 31.0104 26.5309 31.0104 26.3108 31.0223C25.9683 31.0513 25.6363 31.1548 25.338 31.3253C25.0398 31.4959 24.7825 31.7295 24.5842 32.0098C24.3859 32.29 24.2513 32.6102 24.1899 32.9478C24.1286 33.2854 24.1419 33.6324 24.229 33.9643C24.5368 35.1043 25.4186 35.7381 26.7332 35.7455C31.6305 35.7455 36.5269 35.7455 41.4222 35.7455H41.9233C41.3627 36.5516 40.7337 37.2581 40.3411 38.076C39.9486 38.8939 39.7537 39.8424 39.4786 40.7197C39.1976 40.6603 38.8377 40.5193 38.4779 40.5178C34.4539 40.503 30.4285 40.4911 26.403 40.5178C25.1182 40.5267 24.1189 41.6548 24.1487 42.9403C24.1784 44.2762 25.2357 45.2559 26.6945 45.2604C29.9957 45.2703 33.297 45.2703 36.5982 45.2604C37.5871 45.2604 38.5745 45.1847 39.5902 45.1416C39.5902 46.7967 39.614 48.5557 39.5902 50.3191C39.5277 54.327 40.5835 58.0082 42.6312 61.4282C42.71 61.5588 42.771 61.6998 42.8542 61.8602C42.7263 61.872 42.6713 61.8809 42.6163 61.8809C36.222 61.8809 29.8173 61.9017 23.4185 61.872C19.9344 61.8572 17.0391 58.9508 17.0347 55.4625C17.0168 43.1254 17.0203 30.7892 17.045 18.4541C17.0525 15.797 18.3834 13.8347 20.7716 12.665C21.3605 12.3533 22.0415 12.2123 22.6869 12ZM31.224 26.25C32.7617 26.25 34.2993 26.25 35.8339 26.25C37.3031 26.25 38.3708 25.2406 38.3723 23.875C38.3738 22.5094 37.309 21.5 35.8354 21.5C32.778 21.4901 29.7207 21.4901 26.6633 21.5C25.1896 21.5 24.1264 22.5198 24.1264 23.875C24.1264 25.2302 25.1956 26.25 26.6633 26.25C28.1905 26.25 29.7102 26.25 31.224 26.25Z" fill="#1AA4B1"/>
<path d="M58.6376 68.9999C55.1356 67.4324 51.9965 65.335 49.3525 62.5399C46.7427 59.779 44.9538 56.5935 44.4542 52.7728C44.3592 52.0373 44.3096 51.2967 44.3055 50.5551C44.2906 47.5507 44.298 44.5463 44.3055 41.542C44.3055 40.0368 44.8408 39.3021 46.2669 38.8181C50.2274 37.4733 54.1864 36.125 58.1439 34.7732C58.7919 34.5368 59.5022 34.5326 60.1529 34.7613C64.1808 36.1359 68.2112 37.5065 72.2441 38.8731C73.1706 39.1848 73.7029 39.832 74.0003 40.7226V52.0781C73.9605 52.1588 73.9306 52.244 73.9111 52.3319C73.5661 55.7593 72.1653 58.7355 69.9927 61.3599C67.1777 64.7606 63.6639 67.2291 59.6414 68.9999H58.6376ZM58.3402 52.274C58.288 52.2551 58.2381 52.2302 58.1915 52.1998C57.338 51.3507 56.4873 50.4957 55.6308 49.6496C54.5571 48.5898 53.0865 48.5408 52.1214 49.5279C51.1563 50.515 51.2128 51.9356 52.2701 52.9969C53.7571 54.4961 55.2516 55.9909 56.7535 57.4812C57.9759 58.6984 59.5254 58.5856 60.5797 57.2051C61.2533 56.3145 61.918 55.4239 62.5813 54.5332C64.2378 52.3245 65.9033 50.1217 67.5465 47.9025C68.4135 46.7299 68.1488 45.2084 66.98 44.4439C65.9063 43.7403 64.5561 43.9986 63.7322 45.0896C61.9344 47.4765 60.1499 49.8649 58.3432 52.274H58.3402Z" fill="#1AA4B1"/>
</svg>
