<svg width="65" height="65" viewBox="0 0 65 65" fill="none" xmlns="http://www.w3.org/2000/svg">
<path d="M23.0099 48.4731C23.0099 45.742 23.0099 43.0109 23.0099 40.2799C23.0099 38.2738 24.9918 37.0013 28.1191 37C31.0853 37 34.0515 37 37.0176 37C39.9904 37 41.998 38.2981 42 40.2184C42 45.7429 42 51.2674 42 56.7918C42 58.7057 39.9785 59.9923 37.0018 60C33.9854 60 30.9697 60 27.9546 60C25.0354 59.9936 23.0159 58.6904 23 56.7995C23 54.0266 23.0033 51.2511 23.0099 48.4731Z" fill="#1AA4B1"/>
<path d="M2.0033 51.4694C2.0033 49.7316 2.0033 47.9952 2.0033 46.2574C2.0033 44.2991 3.939 43.0039 6.84731 43C8.98898 43 11.1287 43 13.2685 43C16.0338 43.0077 17.9866 44.321 17.9924 46.1929C18.0025 49.7321 18.0025 53.2712 17.9924 56.8103C17.9924 58.677 16.0281 59.9877 13.257 59.9955C11.0702 60.0015 8.88219 60.0015 6.69285 59.9955C3.97525 59.9852 2.02046 58.6628 2.00712 56.8258C1.99377 55.0416 2.0033 53.2548 2.0033 51.4694Z" fill="#1AA4B1"/>
<path d="M23.255 27.338C23.5468 25.6759 23.8425 23.803 24.2165 21.9472C24.2848 21.7028 24.2772 21.4442 24.1947 21.204C24.1121 20.9637 23.9582 20.7524 23.7524 20.5967C22.4854 19.4456 21.2733 18.2413 20.0181 17.0826C19.1996 16.3228 18.8432 15.4452 19.2015 14.3891C19.5736 13.3026 20.4372 12.8258 21.5827 12.6796C23.3451 12.4649 25.1075 12.1838 26.8699 11.952C27.0606 11.9373 27.2432 11.8704 27.3964 11.7592C27.5496 11.6479 27.6671 11.4967 27.7354 11.3233C28.5186 9.74292 29.3372 8.18533 30.1185 6.60685C30.6061 5.62291 31.3502 5.01697 32.5036 5.02077C33.657 5.02457 34.3913 5.64001 34.8769 6.62395C35.6602 8.20433 36.4885 9.75812 37.262 11.3404C37.3331 11.5129 37.4533 11.6622 37.6087 11.7709C37.7641 11.8795 37.9481 11.943 38.1393 11.9539C39.9291 12.1895 41.713 12.4554 43.5028 12.689C44.5857 12.8315 45.4062 13.3083 45.7724 14.334C46.1386 15.3598 45.8252 16.2791 45.0126 17.0408C43.6928 18.2736 42.3984 19.531 41.0707 20.7562C40.9232 20.8749 40.8137 21.032 40.7551 21.209C40.6965 21.386 40.6912 21.5755 40.7398 21.7554C41.0766 23.4991 41.384 25.2504 41.6915 26.9999C41.8697 28.0085 41.6308 28.8994 40.7555 29.5281C39.8801 30.1568 38.9128 30.1853 37.9357 29.6839C36.2966 28.8424 34.6439 28.0275 33.0167 27.1651C32.8567 27.0667 32.6707 27.0154 32.4813 27.0174C32.2919 27.0194 32.1071 27.0747 31.9494 27.1765C30.2752 28.0541 28.6009 28.9317 26.8933 29.7465C25.1408 30.588 23.2237 29.4084 23.255 27.338Z" fill="#1AA4B1"/>
<path d="M47.0056 52.4772C47.0056 51.025 47.0056 49.5742 47.0056 48.1221C47.0056 46.2806 48.9588 45.0088 51.7741 45.0038C53.9358 44.9987 56.0975 44.9987 58.2592 45.0038C61.0287 45.01 62.9838 46.2819 62.9914 48.0958C63.0029 51.03 63.0029 53.9647 62.9914 56.8999C62.9914 58.7137 61.0325 59.9869 58.263 59.9956C56.0759 60.0015 53.8875 60.0015 51.6978 59.9956C48.976 59.9856 47.0171 58.7062 47.0018 56.9261C46.9961 55.4427 47.0056 53.9593 47.0056 52.4772Z" fill="#1AA4B1"/>
<path d="M10.1887 20.9329C9.75011 20.9329 9.30952 20.9576 8.87088 20.9329C8.2787 20.8897 7.72533 20.6306 7.32208 20.2077C6.91883 19.7848 6.69561 19.2295 6.69728 18.6535C6.69519 18.0783 6.91997 17.5241 7.32557 17.1046C7.73117 16.685 8.28686 16.4318 8.87872 16.3969C9.756 16.3551 10.6411 16.3589 11.5164 16.3969C12.1083 16.4272 12.6662 16.6746 13.0771 17.089C13.488 17.5034 13.7211 18.0539 13.7292 18.6288C13.7356 19.2158 13.5084 19.7826 13.0947 20.2111C12.681 20.6396 12.1129 20.8968 11.5086 20.9291C11.0699 20.9557 10.6313 20.9348 10.1887 20.9329Z" fill="#1AA4B1"/>
<path d="M54.8101 20.935C54.3714 20.935 53.9308 20.9559 53.4922 20.935C52.8879 20.9037 52.3193 20.6475 51.9049 20.2197C51.4905 19.7919 51.2623 19.2255 51.2677 18.6385C51.271 18.0632 51.5014 17.5111 51.9115 17.0956C52.3216 16.6801 52.8803 16.4328 53.4726 16.4047C54.3499 16.3648 55.235 16.3629 56.1103 16.4047C56.7022 16.4395 57.2582 16.6919 57.665 17.1104C58.0717 17.529 58.2987 18.0822 58.2996 18.6575C58.3013 19.2332 58.0783 19.7883 57.6755 20.2111C57.2726 20.6339 56.7198 20.8932 56.1279 20.9369C55.6912 20.9673 55.2507 20.9369 54.8101 20.9369V20.935Z" fill="#1AA4B1"/>
<path d="M16.5429 8.47229C16.5404 8.84686 16.4408 9.21479 16.2534 9.5423C16.066 9.8698 15.7967 10.1464 15.4704 10.3467C15.1441 10.5469 14.7711 10.6644 14.3857 10.6884C14.0004 10.7124 13.615 10.642 13.2649 10.4839C12.4056 10.0859 11.5799 9.6229 10.7956 9.09912C10.333 8.77907 10.0093 8.3038 9.8874 7.76543C9.76547 7.22707 9.85396 6.66397 10.1357 6.18529C10.7055 5.18996 11.9647 4.70748 13.0299 5.18615C13.9316 5.60542 14.8001 6.08856 15.6285 6.63167C16.2786 7.04766 16.5567 7.71059 16.5429 8.47229Z" fill="#1AA4B1"/>
<path d="M48.4531 8.12846C48.4531 7.5852 48.835 6.92608 49.5732 6.4835C50.2586 6.0732 50.9538 5.67811 51.6646 5.31151C52.2016 5.01566 52.8376 4.93829 53.4333 5.09637C54.0289 5.25444 54.5358 5.63506 54.8427 6.15487C54.9966 6.41182 55.0966 6.69569 55.1372 6.99021C55.1777 7.28472 55.1579 7.58411 55.079 7.87121C55 8.1583 54.8635 8.42745 54.6771 8.66326C54.4907 8.89906 54.2582 9.09688 53.9929 9.24536C53.2961 9.67861 52.5772 10.0774 51.8389 10.4402C50.2468 11.2 48.461 10.1267 48.4531 8.12846Z" fill="#1AA4B1"/>
<path d="M16.5444 28.8673C16.5611 29.2604 16.4675 29.6504 16.2737 29.9959C16.0799 30.3415 15.7931 30.6296 15.4439 30.8295C14.7409 31.255 14.0242 31.6634 13.2899 32.0338C12.7592 32.3162 12.1356 32.3858 11.5526 32.2278C10.9696 32.0699 10.4735 31.6968 10.1705 31.1885C9.85904 30.6844 9.76416 30.0818 9.90627 29.5106C10.0484 28.9393 10.4161 28.445 10.9303 28.1341C11.6641 27.6666 12.4266 27.2428 13.2135 26.8653C13.5651 26.6969 13.955 26.6181 14.3466 26.6364C14.7382 26.6546 15.1185 26.7693 15.4517 26.9696C15.785 27.1699 16.0602 27.4493 16.2514 27.7813C16.4425 28.1133 16.5434 28.487 16.5444 28.8673Z" fill="#1AA4B1"/>
<path d="M51.0182 26.6296C51.288 26.6825 51.5507 26.7647 51.8015 26.8746C52.5848 27.2716 53.3485 27.6838 54.0848 28.1454C54.5833 28.4562 54.9406 28.94 55.0836 29.4978C55.2267 30.0557 55.1447 30.6455 54.8544 31.1466C54.5699 31.6511 54.096 32.03 53.5312 32.2044C52.9663 32.3788 52.3538 32.3353 51.8211 32.0831C50.9913 31.6819 50.1882 31.2309 49.4164 30.7325C49.0101 30.4609 48.7055 30.0687 48.5484 29.6149C48.3913 29.1612 48.3901 28.6702 48.545 28.2157C48.8642 27.2621 49.7963 26.6163 51.0182 26.6296Z" fill="#1AA4B1"/>
</svg>
