<svg width="65" height="65" viewBox="0 0 65 65" fill="none" xmlns="http://www.w3.org/2000/svg">
<path d="M64.003 59.2608C63.5645 60.5549 62.637 61.0053 61.3455 61.0026C54.3561 60.9782 47.364 61.0026 40.372 61.0026H39.79L39.7422 60.8697L59.8386 43.644C60.1043 44.5394 60.3276 45.3533 60.5562 46.17C61.6635 50.1293 62.7708 54.0869 63.8781 58.0426C63.9148 58.1609 63.9583 58.2768 64.0083 58.3899L64.003 59.2608Z" fill="#1AA4B1"/>
<path d="M32.2233 4.00007C40.6318 3.97294 47.1189 11.3879 46.1967 19.6358C45.7742 23.4179 44.3736 26.8202 42.4761 30.0325C40.1667 33.85 37.3534 37.3246 34.1155 40.3586C33.0525 41.3706 31.9416 41.3788 30.8972 40.3749C26.7487 36.3785 23.1531 31.948 20.7506 26.6167C19.2943 23.3853 18.4013 20.0156 18.8239 16.3991C19.181 13.3506 20.5073 10.5058 22.5997 8.30055C24.6921 6.09533 27.435 4.65138 30.4081 4.19C31.0991 4.09504 31.7848 4.04891 32.2233 4.00007ZM36.0581 18.0703C36.0481 17.3524 35.8307 16.6535 35.433 16.0614C35.0353 15.4692 34.475 15.0102 33.8227 14.742C33.1703 14.4737 32.4549 14.4083 31.7662 14.5538C31.0775 14.6993 30.4462 15.0492 29.9517 15.5597C29.4572 16.0702 29.1214 16.7185 28.9865 17.4231C28.8516 18.1278 28.9237 18.8574 29.1937 19.5204C29.4636 20.1834 29.9194 20.7502 30.5038 21.1497C31.0882 21.5491 31.7751 21.7634 32.4784 21.7656C33.4319 21.7563 34.3431 21.3627 35.0136 20.6706C35.6841 19.9784 36.0595 19.0438 36.0581 18.0703Z" fill="#1AA4B1"/>
<path d="M5.70312 41.6311C6.15757 40.0032 6.60138 38.3754 7.0319 36.7855C7.1887 36.2239 7.34019 35.6595 7.50496 35.0979C7.85841 33.8933 8.568 33.2937 9.7825 33.2856C13.4127 33.262 17.0447 33.262 20.6785 33.2856C20.8095 33.3125 20.9338 33.3663 21.0439 33.4437C21.154 33.5212 21.2475 33.6205 21.3189 33.7359C23.5041 36.9328 26.0183 39.8816 28.8185 42.5319C31.0801 44.6752 33.8892 44.6725 36.1508 42.5319C38.9421 39.9038 41.4379 36.9664 43.5919 33.7739C43.6862 33.606 43.825 33.4688 43.9924 33.3781C44.1598 33.2873 44.349 33.2468 44.538 33.2611C47.9636 33.2828 51.3892 33.2611 54.8148 33.2611C56.4093 33.2611 57.071 33.7658 57.5148 35.3394C57.9586 36.913 58.3759 38.4785 58.8436 40.0385C58.911 40.1855 58.9237 40.3525 58.8791 40.5083C58.8346 40.6641 58.736 40.7981 58.6018 40.885C55.2851 43.6578 51.9782 46.4424 48.6811 49.2387C48.5495 49.3638 48.3897 49.454 48.216 49.5013C48.0422 49.5486 47.8597 49.5516 47.6845 49.51C39.5063 47.9672 31.3264 46.4352 23.1447 44.914L6.15756 41.7424C6.02468 41.7315 5.89181 41.6827 5.70312 41.6311Z" fill="#1AA4B1"/>
<path d="M45.2956 52.1443L38.9175 57.6113C37.7216 58.6341 36.5257 59.6651 35.3272 60.669C35.112 60.8511 34.846 60.9593 34.5671 60.9783C27.9622 60.9945 21.3573 60.9945 14.7524 60.9783C14.6142 60.9783 14.4866 60.9511 14.3086 60.9348V46.3518L45.2956 52.1443Z" fill="#1AA4B1"/>
<path d="M4.90059 44.5938L11.2787 45.7848V60.9485C11.1219 60.9647 10.9838 60.9892 10.8456 60.9892C8.34481 60.9892 5.8414 61.0054 3.33798 60.9892C1.59197 60.9892 0.645847 59.7194 1.11623 58.0047C2.32011 53.6393 3.55322 49.282 4.77569 44.9193C4.80758 44.8298 4.8501 44.7375 4.90059 44.5938Z" fill="#1AA4B1"/>
</svg>
