<svg width="65" height="65" viewBox="0 0 65 65" fill="none" xmlns="http://www.w3.org/2000/svg">
<path d="M51.3636 61.9998H47.0748C44.9644 61.1178 44.5078 60.4271 44.5078 58.1181V55.8328H19.4977C19.4977 56.8552 19.4977 57.8375 19.4977 58.8088C19.4977 59.5851 19.3308 60.3451 18.7533 60.859C18.2252 61.3273 17.5449 61.6262 16.9307 61.9998H12.6419C10.625 61.3346 10.0016 59.864 10.1116 57.883C10.1868 56.5235 10.1391 55.1585 10.1116 53.7954C10.1057 53.5375 10.009 53.2899 9.83838 53.0956C7.91679 51.1912 7.00183 48.8822 7 46.2051C7 36.0131 7 25.8204 7 15.6272C7 13.6663 7.29887 11.7637 8.25967 10.0142C9.65503 7.47561 11.947 6.05231 14.5745 5.07369C17.6605 3.92376 20.8931 3.47363 24.1532 3.27134C30.1362 2.89775 36.121 2.85765 42.093 3.48274C45.1734 3.80348 48.2006 4.38482 51.0152 5.75344C52.8708 6.65553 54.455 7.87653 55.5368 9.6643C56.637 11.5013 56.9945 13.5223 56.9945 15.6253C56.9945 25.8198 56.9945 36.0131 56.9945 46.2051C56.9945 48.8859 56.0777 51.1894 54.1598 53.0938C53.9881 53.2882 53.8913 53.5368 53.8866 53.7954C53.8627 55.4064 53.8774 57.0192 53.8737 58.632C53.8737 60.017 53.3127 61.0777 52.0402 61.7082C51.8201 61.8176 51.5891 61.9032 51.3636 61.9998ZM50.7291 15.4796H13.2764V30.9152H50.7291V15.4796ZM17.9557 49.5583C19.1949 49.5545 20.382 49.062 21.2562 48.189C22.1305 47.316 22.6204 46.1338 22.6185 44.9021C22.6083 43.6727 22.1107 42.4968 21.2336 41.6298C20.3565 40.7629 19.1707 40.2747 17.9337 40.2714C16.6949 40.2848 15.5111 40.7813 14.6372 41.6539C13.7633 42.5266 13.2693 43.7055 13.2617 44.9367C13.2733 46.1673 13.7726 47.3437 14.6514 48.2106C15.5302 49.0775 16.7175 49.5651 17.9557 49.5674V49.5583ZM46.0535 49.5583C47.292 49.5579 48.4804 49.072 49.3606 48.206C50.2408 47.34 50.7418 46.164 50.7548 44.9331C50.7472 43.7019 50.2528 42.5231 49.3784 41.651C48.504 40.7788 47.3197 40.2833 46.081 40.2714C44.8421 40.2752 43.6547 40.7649 42.7771 41.6341C41.8995 42.5033 41.4026 43.6817 41.3944 44.913C41.3939 46.1435 41.8838 47.3241 42.757 48.1964C43.6302 49.0687 44.8155 49.5616 46.0535 49.5674V49.5583Z" fill="#1AA4B1"/>
</svg>
