<svg width="52" height="52" viewBox="0 0 52 52" fill="none" xmlns="http://www.w3.org/2000/svg">
<path d="M27.0518 43.9998H25.0828C24.572 43.9426 24.0595 43.8977 23.5505 43.8238C21.0017 43.4818 18.5588 42.5854 16.3939 41.1976C16.306 41.1339 16.2036 41.0931 16.0959 41.0789C15.9883 41.0648 15.8788 41.0777 15.7774 41.1166C14.5789 41.5136 13.3743 41.8948 12.1722 42.2796L9.19403 43.2286C9.24071 43.0781 9.26801 42.9803 9.30059 42.8844C9.954 40.9334 10.5968 38.979 11.2723 37.0351C11.3982 36.6715 11.3533 36.4188 11.1411 36.1098C9.38622 33.589 8.32901 30.6493 8.07655 27.5885C7.73927 23.7412 8.50893 20.1122 10.537 16.8213C13.9026 11.3629 18.8331 8.39778 25.2431 8.02713C28.7919 7.82112 32.132 8.67598 35.1719 10.5292C39.8452 13.3781 42.7107 17.5072 43.7199 22.8995C43.8458 23.5748 43.9084 24.2615 43.9999 24.9429V27.0559C43.9706 27.3088 43.9412 27.5618 43.9119 27.8148C43.4821 31.6744 42.0124 35.0833 39.419 37.9753C36.6434 41.0664 33.2011 42.9936 29.1019 43.7199C28.4212 43.8405 27.7343 43.9118 27.0518 43.9998ZM31.8176 36.1424C32.3953 36.0314 32.8946 35.9927 33.3525 35.8369C35.9019 34.9679 36.7693 33.7363 36.8441 31.3918C36.8565 31.0211 36.727 30.7676 36.3862 30.6056C35.0451 29.9682 33.7127 29.3105 32.3663 28.6837C31.6785 28.3641 31.2752 28.4944 30.819 29.1072C30.4668 29.5773 30.1278 30.0527 29.7676 30.5158C29.219 31.2201 28.8315 31.3081 27.9985 30.9683C25.0352 29.7578 22.832 27.6818 21.1782 24.9817C20.8471 24.4402 20.8647 24.2122 21.2856 23.7245C21.622 23.3345 21.9707 22.955 22.3062 22.5641C22.7201 22.0817 22.8945 21.5614 22.5528 20.9565C22.4711 20.7883 22.3985 20.6158 22.3353 20.4397C21.8237 19.2345 21.3208 18.0248 20.7881 16.8301C20.7 16.6365 20.5001 16.4058 20.3126 16.3618C19.3536 16.139 18.3867 16.1241 17.5624 16.7571C16.8193 17.339 16.2573 18.1204 15.9421 19.01C15.2834 20.7778 15.4948 22.4999 16.2239 24.1981C16.7593 25.4474 17.5448 26.5408 18.3435 27.6228C19.6783 29.4515 21.2565 31.0895 23.0345 32.4914C24.9569 33.988 27.1513 34.9354 29.4629 35.6265C30.2528 35.858 31.0762 35.9821 31.8176 36.1424Z" fill="white"/>
</svg>
