<svg width="52" height="52" viewBox="0 0 52 52" fill="none" xmlns="http://www.w3.org/2000/svg">
<path d="M25.4878 38.8873H28.3545C28.8388 38.8346 29.2952 38.6373 29.6621 38.3219C29.9296 37.9568 30.0673 37.5153 30.054 37.0655C30.054 37.0655 29.9986 33.267 31.7876 32.71C33.5766 32.153 35.8128 36.3787 38.2066 38.0036C40.0211 39.2307 41.3969 38.9585 41.3969 38.9585L47.7862 38.8705C47.7862 38.8705 51.1426 38.6653 49.5538 36.0688C49.4218 35.8552 48.6253 34.1465 44.7832 30.6244C40.7623 26.9431 41.3032 27.5378 46.1463 21.1763C49.0938 17.3024 50.2737 14.9362 49.9074 13.9227C49.5411 12.9092 47.3858 13.2149 47.3858 13.2149L40.1745 13.2568C39.854 13.2195 39.5294 13.2764 39.2417 13.4201C38.9677 13.6181 38.7481 13.88 38.6027 14.1823C37.8557 16.0947 36.9644 17.9496 35.9363 19.7314C32.7247 25.113 31.4383 25.3936 30.9101 25.0585C29.6877 24.2838 29.9943 21.9301 29.9943 20.2633C29.9943 15.0492 30.7994 12.8757 28.4311 12.3061C27.3287 12.0451 26.1951 11.9338 25.0619 11.9752C22.5062 11.9501 20.3083 11.9752 19.0731 12.5783C18.251 12.9762 17.6206 13.8598 18.0082 13.9101C18.4853 13.9729 19.5629 14.1991 20.1379 14.9697C20.8791 15.958 20.8493 18.1902 20.8493 18.1902C20.8493 18.1902 21.2752 24.3256 19.8568 25.0878C18.8814 25.6113 17.5482 24.5434 14.6815 19.6435C13.7248 17.9581 12.8769 16.2153 12.1429 14.4252C12.0113 14.1194 11.8085 13.8483 11.5508 13.6337C11.2117 13.4239 10.834 13.2816 10.4391 13.2149L3.58136 13.2568C3.58136 13.2568 2.55056 13.2861 2.17147 13.7258C1.79238 14.1656 2.14591 14.932 2.14591 14.932C2.14591 14.932 7.51711 27.3159 13.5954 33.5602C19.1753 39.2851 25.5219 38.9082 25.5219 38.9082L25.4878 38.8873Z" fill="white"/>
</svg>
