<svg width="52" height="52" viewBox="0 0 52 52" fill="none" xmlns="http://www.w3.org/2000/svg">
<path d="M44.9178 10.684C44.889 10.5436 44.8239 10.4131 44.7289 10.3054C44.6339 10.1978 44.5123 10.1165 44.3762 10.0698C43.863 9.96796 43.3316 10.0052 42.8378 10.1776C42.8378 10.1776 8.6695 22.3957 6.71409 23.7479C6.297 24.0388 6.17242 24.2058 6.08575 24.4052C5.74992 25.3695 6.80074 25.7951 6.80074 25.7951L15.6082 28.6503C15.7563 28.6769 15.9087 28.6677 16.0524 28.6234C18.0566 27.3627 36.2078 15.9634 37.2587 15.5809C37.4212 15.5324 37.5457 15.5809 37.5132 15.6995C37.0907 17.1594 21.3228 31.1015 21.3228 31.1015C21.2844 31.1516 21.2517 31.2058 21.2253 31.2631L20.4074 39.9526C20.4074 39.9526 20.0607 42.6139 22.7366 39.9526C24.627 38.0725 26.4524 36.4994 27.3678 35.7345C30.3957 37.8139 33.6566 40.1143 35.0595 41.321C35.2966 41.5476 35.5769 41.7249 35.8838 41.8424C36.1908 41.9599 36.5182 42.0152 36.847 42.0052C38.1795 41.9567 38.5533 40.4968 38.5533 40.4968C38.5533 40.4968 44.7824 15.5702 44.9882 12.2301C44.9882 11.9015 45.037 11.6914 45.037 11.4705C45.0366 11.2039 44.9965 10.9388 44.9178 10.684Z" fill="white"/>
</svg>
