<svg width="52" height="52" viewBox="0 0 52 52" fill="none" xmlns="http://www.w3.org/2000/svg">
<path d="M25.8999 12C30.0064 12.16 34.1167 12.3056 38.2188 12.49C39.1892 12.541 40.1552 12.6556 41.1104 12.8332C43.4287 13.2476 44.9143 14.8146 45.3529 17.2516C45.9544 20.5931 46.0754 23.9714 45.9619 27.3504C45.8824 29.7131 45.6549 32.0726 45.425 34.4271C45.2564 36.1516 44.5547 37.6192 43.0309 38.5999C42.0998 39.1987 41.0503 39.3725 39.9839 39.485C35.8485 39.9225 31.6963 40.0188 27.5447 39.9975C23.3661 39.9769 19.1869 39.8512 15.0102 39.7162C13.6687 39.6731 12.3254 39.5006 10.9952 39.3068C8.71257 38.9737 7.1543 37.4105 6.6825 35.0628C6.21069 32.7151 6.10104 30.3375 6.03149 27.9573C5.94064 24.8252 6.03776 21.6975 6.43563 18.5861C6.52046 17.8856 6.64873 17.1911 6.81971 16.5066C7.36232 14.417 9.07034 13.0094 11.3379 12.7257C15.2458 12.2369 19.1762 12.1956 23.1048 12.1294C24.0353 12.1138 24.9657 12.1294 25.8962 12.1294L25.8999 12ZM22.0371 20.0949V32.027L32.425 26.0622L22.0371 20.0949Z" fill="white"/>
</svg>
