<svg width="52" height="52" viewBox="0 0 52 52" fill="none" xmlns="http://www.w3.org/2000/svg">
<path d="M25.4986 6.00455C28.4165 6.00455 31.3344 5.98938 34.2527 6.00931C36.8607 6.02707 39.1745 6.89092 41.1615 8.57962C43.1247 10.2488 44.3455 12.3664 44.8062 14.9047C44.9211 15.5438 44.9791 16.1918 44.9795 16.8412C44.9925 22.6134 45.0302 28.3861 44.973 34.158C44.9297 38.3819 42.9843 41.563 39.3327 43.6711C37.7773 44.5687 36.0672 44.9894 34.2709 44.992C28.4244 45.0006 22.5781 45.0006 16.7319 44.992C12.2105 44.9807 8.13942 42.0595 6.62652 37.7788C6.21943 36.6455 6.00954 35.4509 6.00593 34.2468C6.0029 28.4095 5.99294 22.5723 6.00854 16.735C6.02067 12.074 9.10801 7.90943 13.5492 6.50838C14.6521 6.16539 15.8014 5.99543 16.9564 6.00455C19.8042 6.00888 22.6516 6.00888 25.4986 6.00455ZM25.4869 36.3245C31.4782 36.3245 36.316 31.485 36.3212 25.4978C36.3255 19.5441 31.5051 14.7322 25.6169 14.6673C19.5731 14.6023 14.6617 19.5064 14.6695 25.4978C14.6773 31.4815 19.5102 36.3254 25.4869 36.3254V36.3245ZM40.6549 12.502C40.6528 11.9272 40.4234 11.3765 40.0166 10.9702C39.6098 10.5639 39.0587 10.3349 38.4837 10.3333C37.9112 10.3361 37.363 10.5645 36.9578 10.9687C36.5527 11.373 36.3233 11.9207 36.3194 12.4929C36.3196 13.0678 36.5471 13.6192 36.9522 14.0271C37.3574 14.4351 37.9074 14.6664 38.4824 14.6707C39.6711 14.6764 40.6553 13.6938 40.6557 12.5029L40.6549 12.502Z" fill="white"/>
<path d="M25.4897 31.9977C21.9084 31.9977 18.9965 29.0825 18.9961 25.4993C18.9955 24.6451 19.1636 23.7991 19.4906 23.0098C19.8176 22.2206 20.2972 21.5036 20.9019 20.9C21.5065 20.2963 22.2244 19.8179 23.0143 19.492C23.8043 19.1661 24.6508 18.9993 25.5053 19.001C29.0893 19.0049 31.9951 21.9183 31.9907 25.5041C31.9864 29.0899 29.0707 31.9977 25.4897 31.9977Z" fill="white"/>
</svg>
