<svg width="65" height="65" viewBox="0 0 65 65" fill="none" xmlns="http://www.w3.org/2000/svg">
<path d="M49.8194 14.7795C49.4259 16.777 50.2662 18.2384 51.7474 19.4466C52.2006 19.8469 52.6282 20.2761 53.0276 20.7317C54.1941 21.9306 54.8601 23.5408 54.8867 25.2265C54.9132 26.9122 54.2984 28.5433 53.1702 29.7795C52.4674 30.5705 51.7113 31.316 50.9535 32.0493C50.2661 32.7111 49.9912 33.5038 49.9757 34.4466C49.9568 35.7282 50.0324 37.0342 49.8039 38.2878C49.266 41.2927 46.6627 43.4316 43.6504 43.5049C42.7293 43.5276 41.8066 43.5189 40.8856 43.5154C40.4987 43.5056 40.114 43.5768 39.7554 43.7246C39.3968 43.8724 39.072 44.0936 38.8011 44.3744C38.1035 45.0833 37.4127 45.7974 36.7082 46.4976C33.9588 49.2353 30.0288 49.2196 27.2812 46.4609C26.6247 45.8027 25.9701 45.1444 25.3274 44.474C25.0307 44.1588 24.6724 43.9101 24.2756 43.7438C23.8788 43.5776 23.4521 43.4974 23.023 43.5084C21.8202 43.5084 20.6087 43.5713 19.4351 43.3845C16.342 42.8886 14.1476 40.2556 14.06 37.0691C14.0359 36.1763 14.0359 35.2835 14.06 34.3907C14.0742 33.9654 13.9988 33.5419 13.8387 33.1486C13.6787 32.7554 13.4378 32.4014 13.1321 32.1104C12.3416 31.3143 11.5357 30.5286 10.783 29.694C9.6811 28.4801 9.07573 26.8853 9.09009 25.2339C9.10446 23.5826 9.73747 21.9989 10.8604 20.805C11.5666 20.0472 12.3004 19.3104 13.0479 18.5946C13.3881 18.2787 13.6553 17.8902 13.8303 17.457C14.0053 17.0239 14.0837 16.5567 14.06 16.089C14.0394 14.9803 13.9861 13.8559 14.1339 12.7716C14.5996 9.30577 17.2064 7.02198 20.6534 6.95912C21.3614 6.9469 22.0693 6.93293 22.7756 6.95912C23.2367 6.9888 23.6984 6.91165 24.1259 6.7335C24.5533 6.55534 24.9354 6.28085 25.2432 5.93073C25.8446 5.28121 26.477 4.65963 27.1042 4.03281C29.778 1.35443 33.8179 1.32474 36.526 3.96995C37.0811 4.51296 37.6567 5.04376 38.155 5.6374C39.0039 6.65009 40.0453 7.05865 41.3409 6.96786C42.1754 6.92015 43.0123 6.93532 43.8446 7.01325C45.4522 7.14178 46.9547 7.87524 48.0582 9.07008C49.1617 10.2649 49.7866 11.8352 49.8108 13.4735C49.8262 13.9083 49.8194 14.343 49.8194 14.7795ZM30.6663 28.0492L27.728 25.1107C26.776 24.1608 25.4941 24.0962 24.6349 24.9535C23.7757 25.8108 23.8479 27.1029 24.8067 28.0789C26.1975 29.499 27.5905 30.915 28.9858 32.327C30.097 33.456 31.2145 33.4601 32.3384 32.3392C35.1863 29.4792 38.0313 26.6152 40.8735 23.747C41.1478 23.4736 41.3878 23.1669 41.5883 22.8339C41.7795 22.5215 41.8848 22.1627 41.893 21.7949C41.9013 21.4271 41.8124 21.0638 41.6355 20.7429C41.4586 20.4219 41.2002 20.155 40.8873 19.97C40.5743 19.785 40.2183 19.6887 39.8562 19.6911C39.1689 19.6788 38.6379 19.9931 38.1602 20.4768C35.6754 23.0067 33.1786 25.5175 30.6663 28.051V28.0492Z" fill="#1AA4B1"/>
<path d="M37.0859 51.4645C38.4211 50.2161 39.6635 49.0305 40.9437 47.8799C41.1798 47.68 41.4751 47.5663 41.7823 47.5569C43.5677 47.5691 45.3444 47.5307 47.0353 46.8585C50.3896 45.5176 52.5427 43.0557 53.6064 39.4746C53.7387 39.6754 53.8452 39.8238 53.9329 39.974C55.7314 43.1634 57.53 46.3533 59.3286 49.5439C60.1551 51.0053 60.2565 52.4946 59.3767 53.9351C58.4969 55.3755 57.1101 55.9622 55.4691 55.8225C53.9982 55.6986 52.5358 55.4856 51.0013 55.2987C50.912 55.4925 50.8054 55.6986 50.7178 55.9116C50.2384 57.0744 49.7778 58.246 49.2812 59.4036C48.6042 60.975 47.4151 61.8934 45.7242 61.9947C44.0711 62.0942 42.748 61.4133 41.9008 59.9431C40.2649 57.0849 38.6531 54.2162 37.0859 51.4645Z" fill="#1AA4B1"/>
<path d="M10.6618 40.6729C11.7289 43.2639 13.3837 45.1339 15.7173 46.3701C17.5748 47.3548 19.5699 47.6621 21.6337 47.5452C21.947 47.514 22.2632 47.5614 22.5543 47.6831C22.8455 47.8049 23.1029 47.9973 23.3039 48.2436C24.5652 49.6404 25.921 50.9412 27.6668 51.6518C27.6668 51.767 27.6823 51.8264 27.6668 51.8491C26.1323 54.5414 24.6202 57.246 23.053 59.9174C22.1938 61.3753 20.8655 62.0545 19.209 61.9149C17.6023 61.7787 16.4596 60.8847 15.8101 59.3884C15.2946 58.1976 14.779 57.0016 14.303 55.7881C14.1175 55.3062 13.8666 55.1875 13.3889 55.2643C12.2479 55.4389 11.0983 55.5786 9.95215 55.7392C8.21144 55.9854 6.74395 55.4808 5.74042 53.9932C4.73689 52.5056 4.79014 50.9324 5.67854 49.3802C7.21705 46.689 8.75329 43.9978 10.2872 41.3067C10.392 41.1251 10.5055 40.9417 10.6618 40.6729Z" fill="#1AA4B1"/>
</svg>
