<svg width="68" height="54" viewBox="0 0 68 54" fill="none" xmlns="http://www.w3.org/2000/svg">
<g clip-path="url(#clip0_320_2600)">
<path d="M0 26.8691C0.284579 26.5415 0.587177 26.2299 0.906396 25.9358C10.7584 17.7387 20.6146 9.5491 30.4752 1.36684C32.6839 -0.466611 35.3272 -0.451854 37.5414 1.39082C40.6306 3.96084 43.7166 6.53578 46.7996 9.11564C46.9661 9.25398 47.1418 9.37941 47.4193 9.59338C47.4359 9.27427 47.46 9.04923 47.4618 8.82236C47.4618 6.54992 47.4618 4.27748 47.4618 1.99766C47.4618 0.547869 47.9002 0.125482 49.3727 0.125482H56.3426C57.8928 0.125482 58.2812 0.507294 58.2812 2.02533C58.2812 7.34306 58.2812 12.659 58.2683 17.9767C58.2574 18.1912 58.3008 18.4051 58.3946 18.5985C58.4883 18.7919 58.6294 18.9586 58.8047 19.0834C61.5553 21.3374 64.2893 23.6135 67.0289 25.8823C67.1491 25.98 67.2693 26.0778 67.3822 26.1829C68.1221 26.8488 68.1942 27.5608 67.5671 28.3336C66.805 29.278 66.0189 30.2058 65.2216 31.1225C64.5095 31.9397 63.764 31.9821 62.9149 31.2756L39.7889 12.0484L33.9954 7.23608L28.9899 11.3918C21.021 18.0136 13.0521 24.6372 5.08321 31.2627C4.17867 32.0153 3.4517 31.9581 2.67849 31.0524C1.77579 29.9771 0.893447 28.887 0 27.795V26.8691Z" fill="#1AA4B1"/>
<path d="M39.3655 53.9614V37.8754H28.6201V53.9983H27.9154C22.8691 53.9983 17.8235 53.9983 12.7786 53.9983C10.7993 53.9983 9.69866 52.8916 9.69866 50.929C9.69866 44.4732 9.69866 37.9989 9.68571 31.5339C9.67666 31.3189 9.72168 31.105 9.81666 30.9117C9.91164 30.7184 10.0536 30.5519 10.2295 30.4272C17.953 24.0956 25.6666 17.7511 33.3704 11.3937C33.868 10.9842 34.1436 11.0045 34.6264 11.4029C42.3264 17.7603 50.04 24.1042 57.7672 30.4346C58.1168 30.7223 58.3036 31.0009 58.3018 31.4786C58.2851 38.0321 58.3018 44.5857 58.2888 51.1393C58.2888 52.7993 57.1383 53.989 55.4661 53.9946C50.2645 54.0093 45.0647 53.9946 39.865 53.9946C39.7355 53.9964 39.6079 53.9724 39.3655 53.9614Z" fill="#1AA4B1"/>
</g>
<defs>
<clipPath id="clip0_320_2600">
<rect width="68" height="54" fill="white"/>
</clipPath>
</defs>
</svg>
