<svg width="24" height="24" viewBox="0 0 24 24" fill="none" xmlns="http://www.w3.org/2000/svg">
<path d="M11.9983 2.00283C13.4945 2.00283 14.9907 1.99506 16.4872 2.00528C17.8245 2.01438 19.0109 2.45739 20.0298 3.3234C21.0365 4.17942 21.6625 5.26538 21.8987 6.56706C21.9576 6.89482 21.9873 7.22715 21.9876 7.56016C21.9942 10.5203 22.0136 13.4807 21.9842 16.4407C21.962 18.6068 20.9645 20.2382 19.092 21.3193C18.2945 21.7796 17.4176 21.9953 16.4965 21.9967C13.4986 22.0011 10.5008 22.0011 7.503 21.9967C5.18458 21.9909 3.09703 20.4928 2.32126 18.2976C2.11252 17.7164 2.00489 17.1037 2.00304 16.4862C2.00149 13.4927 1.99638 10.4992 2.00438 7.50572C2.0106 5.11541 3.5937 2.97971 5.87102 2.26121C6.43652 2.08532 7.02589 1.99816 7.61812 2.00283C9.0784 2.00505 10.5385 2.00505 11.9983 2.00283ZM11.9923 17.5517C15.0645 17.5517 17.5452 15.0699 17.5478 11.9995C17.55 8.94627 15.0783 6.47864 12.059 6.44531C8.95988 6.41199 6.44146 8.92694 6.44546 11.9995C6.44946 15.0681 8.92766 17.5517 11.9923 17.5517ZM19.77 5.33492C19.769 5.04012 19.6513 4.75771 19.4427 4.54934C19.2341 4.34097 18.9516 4.22356 18.6567 4.22274C18.3632 4.2242 18.082 4.34128 17.8743 4.54861C17.6665 4.75594 17.5489 5.03679 17.5469 5.33025C17.547 5.62504 17.6637 5.90784 17.8714 6.11703C18.0792 6.32623 18.3612 6.44486 18.656 6.44709C19.2656 6.44998 19.7698 5.94566 19.77 5.33492Z" fill="#1AA4B1"/>
<path d="M11.9979 15.75C9.93084 15.75 8.25025 14.0678 8.25 12C8.24967 11.507 8.34665 11.0188 8.5354 10.5634C8.72415 10.108 9.00094 9.6942 9.34993 9.34585C9.69892 8.9975 10.1132 8.7214 10.5692 8.53335C11.0251 8.34531 11.5137 8.24902 12.0069 8.25001C14.0754 8.25226 15.7525 9.93351 15.75 12.0028C15.7475 14.072 14.0647 15.75 11.9979 15.75Z" fill="#1AA4B1"/>
</svg>
