<svg width="65" height="65" viewBox="0 0 65 65" fill="none" xmlns="http://www.w3.org/2000/svg">
<path d="M10.0064 19.5726C10.0064 16.8667 10.0064 14.7488 10.0064 12.6308C10.0064 11.5094 10.368 11.1602 11.4882 11.221C16.0839 11.4726 20.6091 11.1345 25.0352 9.75995C27.3027 9.05344 29.3957 8.0089 31.1847 6.40684C31.7528 5.89739 32.2072 5.86214 32.7241 6.32513C35.4684 8.7843 38.7967 9.92817 42.3251 10.6026C45.661 11.2342 49.063 11.4436 52.451 11.2258C53.6576 11.1505 54.0064 11.4774 54 12.6853C53.9776 16.6408 54.0352 20.5995 53.904 24.5518C53.6912 30.9792 52.4814 37.2081 49.4939 42.9755C46.2184 49.2988 41.3682 53.8983 34.6619 56.4776C32.8681 57.1665 31.2087 57.189 29.4037 56.5001C23.0302 54.0649 18.3033 49.7826 14.9861 43.8806C12.6915 39.7954 11.3985 35.3721 10.6657 30.763C10.0544 26.8539 9.9728 22.9241 10.0064 19.5726ZM28.394 35.2039C28.394 37.2866 28.394 39.2619 28.394 41.2388C28.394 42.2001 28.7269 42.5285 29.6934 42.5317C31.2509 42.5381 32.8078 42.5381 34.3643 42.5317C35.246 42.5317 35.5916 42.1744 35.5948 41.2917C35.5948 39.4926 35.5948 37.6935 35.5948 35.896V35.2055H36.3229C38.1199 35.2055 39.9168 35.2055 41.7138 35.2055C42.5571 35.2055 42.9092 34.8466 42.9124 33.9975C42.9188 32.419 42.9188 30.8404 42.9124 29.2618C42.9124 28.3439 42.562 27.9962 41.6451 27.9946C39.8497 27.9946 38.0527 27.9946 36.2557 27.9946H35.5996C35.5996 25.8991 35.5996 23.9029 35.5996 21.9068C35.5996 21.0288 35.2427 20.6796 34.3594 20.6764C32.7817 20.6764 31.2044 20.6764 29.6277 20.6764C28.7508 20.6764 28.402 21.0337 28.3988 21.918C28.3988 23.4768 28.3988 25.0356 28.3988 26.5944V27.9962H27.6707C25.8545 27.9962 24.0383 27.9962 22.2221 27.9962C21.4844 27.9962 21.102 28.3743 21.0892 29.092C21.0764 30.7688 21.0764 32.4473 21.0892 34.1273C21.0892 34.8226 21.4733 35.1959 22.1741 35.2023C23.6511 35.2151 25.1281 35.2023 26.6066 35.2023L28.394 35.2039Z" fill="#1AA4B1"/>
</svg>
