<svg width="12" height="15" viewBox="0 0 12 15" fill="none" xmlns="http://www.w3.org/2000/svg">
<path fill-rule="evenodd" clip-rule="evenodd" d="M5.50918 0.0214134C3.43786 0.201539 1.59451 1.47098 0.657569 3.36248C0.167862 4.3511 0 5.07805 0 6.21002C0 6.85933 0.0175804 7.07392 0.103341 7.47187C0.295029 8.36099 0.654669 9.19157 1.1487 9.88593C1.31554 10.1204 2.26961 11.1436 3.70737 12.6299L6 15L8.29264 12.6299C9.73039 11.1436 10.6845 10.1204 10.8513 9.88593C11.3453 9.19157 11.705 8.36099 11.8967 7.47187C11.9824 7.07392 12 6.85933 12 6.21002C12 5.07805 11.8321 4.3511 11.3424 3.36248C10.246 1.14892 7.91252 -0.187613 5.50918 0.0214134Z" fill="#1AA4B1"/>
<path d="M5.508 8.569C5.508 8.283 5.55567 8.03367 5.651 7.821C5.74633 7.60833 5.86367 7.41767 6.003 7.249C6.14967 7.08033 6.30733 6.92633 6.476 6.787C6.64467 6.64033 6.80233 6.49733 6.949 6.358C7.09567 6.21133 7.213 6.05733 7.301 5.896C7.39633 5.73467 7.444 5.54767 7.444 5.335C7.444 4.983 7.30467 4.697 7.026 4.477C6.74733 4.257 6.36233 4.147 5.871 4.147C5.431 4.147 5.04967 4.22033 4.727 4.367C4.40433 4.51367 4.12933 4.73 3.902 5.016L3.099 4.444C3.407 4.05533 3.79933 3.75467 4.276 3.542C4.75267 3.322 5.31 3.212 5.948 3.212C6.476 3.212 6.93433 3.29267 7.323 3.454C7.71167 3.608 8.01233 3.83167 8.225 4.125C8.445 4.411 8.555 4.75933 8.555 5.17C8.555 5.478 8.50733 5.742 8.412 5.962C8.31667 6.182 8.19567 6.37633 8.049 6.545C7.90233 6.71367 7.74467 6.87133 7.576 7.018C7.41467 7.16467 7.26067 7.31133 7.114 7.458C6.96733 7.60467 6.84633 7.766 6.751 7.942C6.65567 8.118 6.608 8.327 6.608 8.569H5.508ZM6.069 11.066C5.86367 11.066 5.69133 10.9963 5.552 10.857C5.42 10.7177 5.354 10.5527 5.354 10.362C5.354 10.1567 5.42 9.988 5.552 9.856C5.69133 9.724 5.86367 9.658 6.069 9.658C6.27433 9.658 6.443 9.724 6.575 9.856C6.707 9.988 6.773 10.1567 6.773 10.362C6.773 10.5527 6.707 10.7177 6.575 10.857C6.443 10.9963 6.27433 11.066 6.069 11.066Z" fill="white"/>
</svg>
