<svg width="18" height="18" viewBox="0 0 18 18" fill="none" xmlns="http://www.w3.org/2000/svg">
<path fill-rule="evenodd" clip-rule="evenodd" d="M8.50918 2.02141C6.43786 2.20154 4.59451 3.47098 3.65757 5.36248C3.16786 6.3511 3 7.07805 3 8.21002C3 8.85933 3.01758 9.07392 3.10334 9.47187C3.29503 10.361 3.65467 11.1916 4.1487 11.8859C4.31554 12.1204 5.26961 13.1436 6.70737 14.6299L9 17L11.2926 14.6299C12.7304 13.1436 13.6845 12.1204 13.8513 11.8859C14.3453 11.1916 14.705 10.361 14.8967 9.47187C14.9824 9.07392 15 8.85933 15 8.21002C15 7.07805 14.8321 6.3511 14.3424 5.36248C13.246 3.14892 10.9125 1.81239 8.50918 2.02141ZM10.0071 4.2075C11.6777 4.63788 12.8994 6.17714 13.0011 7.97992C13.1078 9.86999 11.9619 11.5614 10.1601 12.1735C9.80308 12.2947 9.73512 12.3023 9 12.3023C8.26488 12.3023 8.19693 12.2947 7.83987 12.1735C6.03806 11.5614 4.89217 9.86999 4.9989 7.97992C5.08578 6.44107 5.95806 5.11415 7.31139 4.46208C8.17185 4.04753 9.06042 3.96363 10.0071 4.2075ZM8.3307 5.54578C7.36382 5.81353 6.6627 6.55479 6.40912 7.57751C6.221 8.33602 6.34902 9.04935 6.80116 9.76207C7.81404 11.3589 10.1465 11.3598 11.2037 9.76396C12.2466 8.18972 11.4577 6.03125 9.65895 5.53741C9.35589 5.4542 8.64527 5.45866 8.3307 5.54578Z" fill="#1AA4B1"/>
</svg>
