<svg width="27" height="32" viewBox="0 0 27 32" fill="none" xmlns="http://www.w3.org/2000/svg">
<path fill-rule="evenodd" clip-rule="evenodd" d="M12.3956 0.045682C7.73518 0.42995 3.58764 3.13809 1.47953 7.17329C0.377688 9.28235 0 10.8332 0 13.248C0 14.6332 0.0395559 15.091 0.232516 15.94C0.663816 17.8368 1.473 19.6087 2.58459 21.09C2.95996 21.5902 5.10662 23.7731 8.34157 26.9438L13.5 32L18.6584 26.9438C21.8934 23.7731 24.04 21.5902 24.4154 21.09C25.527 19.6087 26.3362 17.8368 26.7675 15.94C26.9604 15.091 27 14.6332 27 13.248C27 10.8332 26.6223 9.28235 25.5205 7.17329C23.0536 2.45104 17.8032 -0.400242 12.3956 0.045682ZM15.7659 4.70932C19.5248 5.62748 22.2736 8.91123 22.5025 12.7572C22.7426 16.7893 20.1644 20.3977 16.1103 21.7034C15.3069 21.9621 15.154 21.9782 13.5 21.9782C11.846 21.9782 11.6931 21.9621 10.8897 21.7034C6.83564 20.3977 4.25738 16.7893 4.49752 12.7572C4.69299 9.47428 6.65563 6.64352 9.70063 5.25244C11.6367 4.36806 13.6359 4.18908 15.7659 4.70932ZM11.9941 7.56433C9.81859 8.13553 8.24108 9.71688 7.67053 11.8987C7.24726 13.5169 7.5353 15.0386 8.5526 16.5591C10.8316 19.9656 16.0796 19.9676 18.4583 16.5631C20.8049 13.2047 19.0298 8.60001 14.9826 7.54646C14.3008 7.36896 12.7019 7.37848 11.9941 7.56433Z" fill="#1AA4B1"/>
</svg>
