<svg width="90" height="80" viewBox="0 0 90 80" fill="none" xmlns="http://www.w3.org/2000/svg">
<path d="M79.0043 68.1691C78.538 69.5314 77.5516 70.0055 76.178 70.0026C68.7449 69.9769 61.3089 70.0026 53.8729 70.0026H53.254L53.2031 69.8627L74.5755 51.7305C74.8581 52.6729 75.0956 53.5297 75.3386 54.3893C76.5163 58.5571 77.6939 62.7229 78.8715 66.8868C78.9105 67.0113 78.9568 67.1334 79.01 67.2524L79.0043 68.1691Z" fill="#1AA4B1"/>
<path d="M45.2057 10.0001C54.1481 9.97152 61.0471 17.7767 60.0663 26.4587C59.617 30.4399 58.1275 34.0212 56.1095 37.4026C53.6534 41.421 50.6615 45.0786 47.2181 48.2723C46.0875 49.3375 44.9061 49.3461 43.7954 48.2894C39.3835 44.0826 35.5596 39.4189 33.0046 33.807C31.4558 30.4056 30.5062 26.8586 30.9556 23.0516C31.3353 19.8427 32.7459 16.8482 34.9711 14.5269C37.1963 12.2056 40.1134 10.6857 43.2753 10.2C44.0102 10.1 44.7394 10.0515 45.2057 10.0001ZM49.284 24.8109C49.2734 24.0552 49.0421 23.3195 48.6192 22.6962C48.1962 22.0728 47.6004 21.5897 46.9066 21.3073C46.2129 21.025 45.452 20.9561 44.7196 21.1092C43.9872 21.2624 43.3158 21.6307 42.7899 22.1681C42.264 22.7055 41.9069 23.3879 41.7634 24.1296C41.62 24.8714 41.6967 25.6394 41.9838 26.3373C42.2708 27.0352 42.7555 27.6318 43.377 28.0523C43.9985 28.4727 44.7291 28.6983 45.477 28.7006C46.491 28.6908 47.4602 28.2765 48.1732 27.548C48.8863 26.8194 49.2856 25.8356 49.284 24.8109Z" fill="#1AA4B1"/>
<path d="M17.0039 49.6118C17.4872 47.8983 17.9592 46.1847 18.4171 44.5112C18.5838 43.92 18.7449 43.326 18.9201 42.7348C19.296 41.4667 20.0507 40.8356 21.3423 40.827C25.203 40.8023 29.0656 40.8023 32.9301 40.827C33.0694 40.8554 33.2016 40.9121 33.3187 40.9935C33.4358 41.075 33.5353 41.1797 33.6112 41.3011C35.9351 44.6662 38.6089 47.7703 41.587 50.56C43.9921 52.8162 46.9795 52.8133 49.3847 50.56C52.3533 47.7936 55.0076 44.7016 57.2983 41.3411C57.3986 41.1644 57.5462 41.0199 57.7243 40.9244C57.9023 40.8289 58.1035 40.7862 58.3045 40.8013C61.9476 40.8242 65.5907 40.8013 69.2337 40.8013C70.9295 40.8013 71.6332 41.3325 72.1052 42.989C72.5772 44.6454 73.0209 46.2933 73.5184 47.9354C73.59 48.0901 73.6035 48.2659 73.5562 48.43C73.5088 48.594 73.404 48.7349 73.2612 48.8265C69.734 51.7452 66.2171 54.6763 62.7106 57.6198C62.5707 57.7515 62.4008 57.8465 62.216 57.8963C62.0312 57.9461 61.8371 57.9492 61.6508 57.9054C52.9534 56.2814 44.2541 54.6687 35.5529 53.0675L17.4872 49.7289C17.3459 49.7175 17.2046 49.6661 17.0039 49.6118Z" fill="#1AA4B1"/>
<path d="M59.1068 60.6785L52.3237 66.4331C51.0519 67.5098 49.7801 68.5951 48.5054 69.6517C48.2766 69.8435 47.9938 69.9574 47.6971 69.9773C40.6729 69.9945 33.6486 69.9945 26.6243 69.9773C26.4773 69.9773 26.3417 69.9488 26.1523 69.9316V54.5811L59.1068 60.6785Z" fill="#1AA4B1"/>
<path d="M16.1485 52.7305L22.9316 53.9842V69.946C22.7648 69.9631 22.6179 69.9888 22.4709 69.9888C19.8114 69.9888 17.149 70.0059 14.4867 69.9888C12.6298 69.9888 11.6236 68.6522 12.1239 66.8473C13.4042 62.2521 14.7156 57.6655 16.0157 53.0732C16.0496 52.9789 16.0948 52.8818 16.1485 52.7305Z" fill="#1AA4B1"/>
</svg>
