<svg width="65" height="65" viewBox="0 0 65 65" fill="none" xmlns="http://www.w3.org/2000/svg">
<path d="M4 48.1976V9.67802C4.0376 9.61592 4.06757 9.5495 4.08922 9.48021C4.77458 6.0893 7.31981 4.00122 10.7794 4.00122C19.7184 4.00122 28.6574 4.00122 37.5964 4.00122C37.9486 3.99247 38.3009 4.00987 38.6505 4.05327C42.0699 4.56934 44.3683 7.22555 44.3728 10.7087C44.3817 18.0913 44.3728 25.474 44.3847 32.8567C44.395 33.0557 44.3613 33.2546 44.286 33.4392C44.2107 33.6238 44.0957 33.7895 43.9491 33.9245C39.4771 38.3714 35.0125 42.8251 30.5554 47.2859C29.516 48.2826 28.8217 49.5852 28.5736 51.004C28.4086 51.9528 28.2257 52.8972 28.0503 53.8506C27.9299 53.8625 27.8392 53.8803 27.753 53.8803C21.9296 53.8803 16.1062 53.9071 10.2828 53.861C8.28466 53.8446 6.65673 52.9255 5.39155 51.3728C4.63333 50.4373 4.27801 49.3353 4 48.1976ZM24.2027 23.0096H17.9155C16.3946 23.0096 14.8722 22.9784 13.3528 23.0275C12.9761 23.0435 12.6088 23.1508 12.2827 23.3402C11.9566 23.5297 11.6815 23.7956 11.4809 24.1151C11.2804 24.4345 11.1604 24.7979 11.1314 25.1741C11.1025 25.5502 11.1653 25.9277 11.3146 26.2741C11.7487 27.2825 12.5515 27.7435 13.6487 27.7435C20.6778 27.7435 27.7074 27.7435 34.7375 27.7435C34.8475 27.7435 34.959 27.7435 35.0705 27.7316C35.5634 27.6923 36.0314 27.4987 36.4082 27.1784C36.785 26.8581 37.0514 26.4272 37.1697 25.9469C37.5369 24.3913 36.4353 23.023 34.7746 23.0171C31.2497 23.0007 27.7262 23.0096 24.2027 23.0096ZM19.4215 32.4997C17.4888 32.4997 15.5665 32.4997 13.6383 32.4997C12.2021 32.4997 11.1406 33.5021 11.1258 34.8436C11.1109 36.1851 12.1501 37.244 13.5788 37.2515C17.471 37.2693 21.3637 37.2693 25.2568 37.2515C26.7287 37.2515 27.7559 36.2104 27.7307 34.8183C27.7084 33.4694 26.6588 32.5012 25.2033 32.4982C23.278 32.4968 21.3453 32.4997 19.4215 32.4997ZM18.2039 18.2505C19.7412 18.2505 21.2799 18.2505 22.8127 18.2505C24.289 18.2505 25.3564 17.2555 25.3653 15.8917C25.3743 14.5279 24.3128 13.5017 22.838 13.4973C19.7655 13.4844 16.69 13.4844 13.6115 13.4973C12.1516 13.5047 11.096 14.5502 11.1153 15.917C11.1347 17.2555 12.1977 18.2445 13.6427 18.2505C15.1651 18.2549 16.6845 18.2505 18.2039 18.2505Z" fill="#1AA4B1"/>
<path d="M33.2754 61.0004C32.0222 60.2568 31.8289 59.7809 32.098 58.3055C32.4667 56.2819 32.8225 54.2563 33.1654 52.2287C33.2574 51.585 33.5589 50.9896 34.0233 50.5347C39.7262 44.8515 45.4252 39.1633 51.1203 33.4701C51.6256 32.9555 52.1994 32.5131 52.8255 32.1554C54.1844 31.4118 55.6042 31.6096 56.7281 32.6714C57.806 33.6902 58.8615 34.7357 59.874 35.8199C61.4038 37.4559 61.3785 39.8742 59.8383 41.5116C59.0949 42.3088 58.2995 43.0673 57.525 43.8406C52.5941 48.7733 47.6672 53.71 42.7442 58.6506C42.0906 59.3322 41.2243 59.7708 40.2882 59.8939C38.3109 60.1914 36.344 60.5676 34.3741 60.9142C34.3036 60.9351 34.2358 60.964 34.1719 61.0004H33.2754Z" fill="#1AA4B1"/>
</svg>
