<svg width="24" height="24" viewBox="0 0 24 24" fill="none" xmlns="http://www.w3.org/2000/svg">
<path d="M20.9389 3.35617C20.9241 3.28159 20.8907 3.21227 20.8421 3.15504C20.7934 3.09782 20.7311 3.05466 20.6613 3.02983C20.3982 2.97571 20.1258 2.99549 19.8727 3.08709C19.8727 3.08709 2.35835 9.57948 1.35602 10.298C1.14223 10.4526 1.07837 10.5413 1.03394 10.6472C0.861798 11.1596 1.40044 11.3858 1.40044 11.3858L5.91509 12.903C5.99099 12.9171 6.06909 12.9122 6.14276 12.8887C7.17008 12.2188 16.4742 6.16153 17.0129 5.95829C17.0962 5.93252 17.16 5.95829 17.1434 6.02126C16.9268 6.79703 8.84433 14.2055 8.84433 14.2055C8.82464 14.2321 8.80787 14.2609 8.79435 14.2913L8.3751 18.9087C8.3751 18.9087 8.1974 20.3229 9.56901 18.9087C10.538 17.9097 11.4737 17.0738 11.9429 16.6673C13.495 17.7723 15.1665 18.9946 15.8856 19.6358C16.0072 19.7563 16.1508 19.8505 16.3082 19.9129C16.4655 19.9753 16.6334 20.0047 16.8019 19.9994C17.4849 19.9736 17.6765 19.1979 17.6765 19.1979C17.6765 19.1979 20.8695 5.95256 20.975 4.17774C20.975 4.00312 21 3.89148 21 3.77411C20.9998 3.63245 20.9792 3.4916 20.9389 3.35617Z" fill="#1AA4B1"/>
</svg>
