<svg width="24" height="24" viewBox="0 0 24 24" fill="none" xmlns="http://www.w3.org/2000/svg">
<path d="M11.7496 18.9498H13.1834C13.4256 18.9225 13.6539 18.8202 13.8374 18.6568C13.9712 18.4676 14.0401 18.2388 14.0334 18.0058C14.0334 18.0058 14.0057 16.0374 14.9005 15.7488C15.7953 15.4602 16.9137 17.6499 18.111 18.4919C19.0186 19.1277 19.7067 18.9867 19.7067 18.9867L22.9023 18.9411C22.9023 18.9411 24.5811 18.8348 23.7864 17.4893C23.7204 17.3786 23.322 16.4932 21.4004 14.6681C19.3893 12.7605 19.6598 13.0687 22.0821 9.7722C23.5564 7.76481 24.1465 6.53867 23.9633 6.0135C23.78 5.48832 22.7021 5.64674 22.7021 5.64674L19.0953 5.66844C18.935 5.64915 18.7726 5.67859 18.6287 5.75308C18.4917 5.85568 18.3818 5.99142 18.3091 6.14805C17.9355 7.13903 17.4897 8.10019 16.9755 9.0235C15.3692 11.8121 14.7258 11.9575 14.4616 11.7839C13.8502 11.3825 14.0036 10.1628 14.0036 9.29911C14.0036 6.59727 14.4062 5.47096 13.2217 5.17582C12.6703 5.04058 12.1033 4.9829 11.5366 5.00438C10.2583 4.99135 9.15902 5.00438 8.5412 5.31688C8.13003 5.52304 7.81473 5.98094 8.00859 6.00699C8.2472 6.03954 8.78619 6.15673 9.0738 6.55603C9.44449 7.06819 9.42958 8.22488 9.42958 8.22488C9.42958 8.22488 9.64262 11.4042 8.93319 11.7991C8.44533 12.0704 7.77851 11.517 6.34474 8.97793C5.86623 8.10462 5.44215 7.20149 5.07501 6.27392C5.00921 6.11545 4.90778 5.97496 4.77889 5.86376C4.60926 5.75506 4.42035 5.68133 4.22285 5.64674L0.792884 5.66844C0.792884 5.66844 0.277323 5.68364 0.0877164 5.9115C-0.10189 6.13937 0.0749336 6.5365 0.0749336 6.5365C0.0749336 6.5365 2.76139 12.9536 5.80149 16.1893C8.59233 19.1559 11.7666 18.9606 11.7666 18.9606L11.7496 18.9498Z" fill="#1AA4B1"/>
</svg>
