<svg width="87" height="39" viewBox="0 0 87 39" fill="none" xmlns="http://www.w3.org/2000/svg">
<rect x="1" y="1" width="84.4665" height="37" rx="18.5" fill="white" stroke="#1AA4B1" stroke-width="2"/>
<ellipse cx="67" cy="19.5" rx="15" ry="15.5" fill="#1AA4B1"/>
<g clip-path="url(#clip0_1_15128)">
<path d="M19.7411 32C19.5608 31.8503 19.3721 31.7132 19.2086 31.5479C18.7132 31.047 18.2275 30.5348 17.7401 30.0251C17.3601 29.6275 17.3632 29.2474 17.7467 28.8473C18.2023 28.3714 18.664 27.9005 19.1124 27.4172C19.188 27.3282 19.2327 27.2152 19.2392 27.0966C19.2542 26.7077 19.2452 26.3182 19.2452 25.8712C19.0937 25.9995 18.9753 26.0985 18.8581 26.1993C18.6441 26.384 18.4331 26.5718 18.2173 26.7541C17.8921 27.0271 17.478 27.0008 17.2315 26.6952C16.9851 26.3896 17.0313 25.9551 17.3517 25.6764C17.9264 25.1755 18.5029 24.6746 19.0853 24.1799C19.2092 24.0753 19.2723 23.967 19.2476 23.8042C19.2443 23.7496 19.2443 23.6948 19.2476 23.6402C19.2416 23.3684 19.321 23.0441 19.2056 22.8393C19.0901 22.6346 18.7806 22.5425 18.5527 22.4066C18.3394 22.2814 18.1224 22.066 17.9048 22.0629C17.6968 22.0629 17.4954 22.3021 17.2748 22.396C16.9652 22.5287 16.8576 22.7623 16.8149 23.0904C16.7254 23.7704 16.6021 24.4454 16.4909 25.1223C16.4266 25.5124 16.1904 25.7522 15.8592 25.7747C15.54 25.796 15.2527 25.6082 15.1739 25.2895C15.1431 25.1377 15.1409 24.9812 15.1673 24.8286C15.2274 24.4128 15.3007 24.0002 15.3765 23.5425C14.981 23.7804 14.6167 23.9927 14.2614 24.22C14.2013 24.2576 14.1701 24.3565 14.1496 24.4341C13.9807 25.0734 13.8166 25.714 13.6519 26.3539C13.501 26.94 13.1927 27.1247 12.63 26.9682L10.4774 26.3708C9.93104 26.2193 9.75612 25.895 9.90279 25.3183C10.1012 24.55 10.2965 23.7811 10.4979 23.0134C10.6289 22.5125 10.9535 22.3246 11.4386 22.4574C12.062 22.6295 12.6859 22.8005 13.3069 22.9827C13.3734 23.0056 13.4441 23.0123 13.5135 23.0023C13.5829 22.9923 13.6491 22.9659 13.7072 22.9251C14.0192 22.726 14.3402 22.5413 14.6966 22.3271C14.2548 22.1562 13.8551 21.999 13.4505 21.845C13.1987 21.7492 13.0298 21.5782 12.9805 21.2977C12.8891 20.7511 13.3556 20.329 13.8665 20.5138C14.5962 20.7767 15.3188 21.0604 16.0413 21.3453C16.0979 21.3729 16.1605 21.3843 16.2227 21.3783C16.285 21.3724 16.3445 21.3493 16.3954 21.3115C16.575 21.1834 16.7643 21.071 16.9616 20.9752C17.1912 20.8719 17.255 20.7141 17.2393 20.4643C17.2216 20.1133 17.2216 19.7615 17.2393 19.4105C17.2459 19.2445 17.1864 19.1569 17.0506 19.0836C16.7717 18.9321 16.5096 18.6572 16.2241 18.6347C15.9385 18.6121 15.6187 18.8263 15.317 18.9415C14.8589 19.1156 14.4033 19.2953 13.9452 19.4687C13.5317 19.6252 13.15 19.4687 13.0105 19.0874C12.8711 18.706 13.0598 18.3109 13.483 18.1481C13.8737 17.9947 14.2644 17.847 14.7002 17.681C14.2981 17.44 13.932 17.2139 13.5581 17.0041C13.498 16.9716 13.3982 17.0041 13.3213 17.0248C12.6979 17.1964 12.0758 17.3736 11.4524 17.5458C10.9523 17.6839 10.6341 17.4961 10.4979 16.9822C10.2899 16.1929 10.0847 15.4022 9.88235 14.6103C9.76213 14.1376 9.95088 13.7926 10.4053 13.6623C11.1864 13.439 11.969 13.2219 12.7532 13.0111C13.1686 12.8984 13.501 13.0957 13.6182 13.5302C13.7986 14.2058 13.9669 14.8865 14.1532 15.5609C14.1877 15.6747 14.2577 15.7732 14.3522 15.8407C14.6744 16.053 15.0134 16.2427 15.3801 16.4638C15.302 15.9973 15.2304 15.5715 15.1601 15.1451C15.0687 14.5916 15.4005 14.1833 15.8964 14.2359C16.206 14.2685 16.429 14.502 16.4915 14.8733C16.6021 15.5264 16.732 16.1776 16.8059 16.8357C16.8498 17.2308 17.0187 17.4481 17.3385 17.6635C17.7593 17.949 18.1001 17.9828 18.4926 17.6472C18.673 17.4907 18.9008 17.3855 19.1136 17.2715C19.1612 17.2507 19.2009 17.214 19.2263 17.1672C19.2518 17.1204 19.2616 17.0662 19.2542 17.0129C19.2428 16.6698 19.339 16.2822 19.2146 15.996C19.0901 15.7099 18.7547 15.5446 18.5077 15.3286C18.1338 15.0023 17.7563 14.6805 17.3824 14.3542C17.0458 14.0612 16.9851 13.6367 17.2303 13.3223C17.484 12.9974 17.8987 12.9773 18.2522 13.2766C18.5654 13.544 18.8767 13.8139 19.1899 14.0812C19.1983 14.0881 19.217 14.0812 19.25 14.0812C19.25 13.6492 19.2548 13.2153 19.2452 12.7813C19.2452 12.7187 19.1797 12.6467 19.1298 12.5935C18.67 12.1107 18.2059 11.6317 17.7473 11.1533C17.374 10.7632 17.3704 10.3794 17.7413 9.99181C18.2863 9.42075 18.8335 8.85178 19.3829 8.2849C19.7435 7.90921 20.118 7.91422 20.4829 8.29179C21.0311 8.85992 21.5783 9.42889 22.1245 9.9987C22.4852 10.3744 22.4852 10.7657 22.1245 11.1421C21.6575 11.6286 21.1874 12.112 20.7246 12.6029C20.6625 12.6654 20.6232 12.7484 20.6134 12.8377C20.6019 13.251 20.6079 13.6642 20.6079 14.1138C20.6759 14.0675 20.724 14.0405 20.7654 14.0049C21.0612 13.7513 21.3521 13.492 21.6509 13.2428C21.9652 12.9648 22.386 13.0093 22.6265 13.323C22.8669 13.6367 22.8068 14.0524 22.4978 14.3248C21.9111 14.837 21.3173 15.3411 20.7354 15.8589C20.6597 15.9363 20.6138 16.0399 20.6061 16.1501C20.5887 16.43 20.6061 16.7136 20.5977 16.9929C20.5898 17.0496 20.5996 17.1075 20.6259 17.158C20.6521 17.2084 20.6932 17.2487 20.7432 17.2728C21.0926 17.4711 21.4371 17.6779 21.7765 17.8933C21.8967 17.9691 21.9905 17.9728 22.0999 17.8864C22.1643 17.8319 22.2365 17.7884 22.3139 17.7574C22.8471 17.5652 23.0436 17.1619 23.0887 16.5946C23.1344 16.0136 23.2618 15.4388 23.3616 14.8627C23.4386 14.4162 23.7632 14.1689 24.1647 14.2365C24.5338 14.2991 24.7628 14.6642 24.6955 15.1031C24.6282 15.5421 24.5512 15.9798 24.4713 16.4575C24.8716 16.2177 25.2425 16.0017 25.605 15.7719C25.6567 15.7393 25.6801 15.6429 25.6987 15.5709C25.8664 14.9309 26.0305 14.2904 26.1959 13.6504C26.3473 13.0631 26.6551 12.8784 27.2177 13.0349L29.3697 13.6348C29.9203 13.7882 30.0952 14.1075 29.9462 14.6842C29.7484 15.4525 29.5524 16.2215 29.3511 16.9885C29.22 17.4894 28.8966 17.6773 28.4109 17.5464C27.7732 17.3711 27.1372 17.1864 26.497 17.0185C26.3914 16.9955 26.2814 17.0105 26.185 17.0611C25.8484 17.249 25.5238 17.4537 25.1511 17.6779C25.5971 17.8507 26.0053 18.0104 26.4135 18.1669C26.6581 18.2608 26.8198 18.4324 26.8679 18.7004C26.9659 19.2539 26.485 19.6785 25.9662 19.4869C25.2521 19.2251 24.5414 18.9538 23.8341 18.6729C23.6862 18.614 23.5732 18.6102 23.4386 18.7017C23.2113 18.8526 22.9679 18.9778 22.7413 19.1306C22.7078 19.156 22.6798 19.1885 22.6591 19.226C22.6384 19.2634 22.6254 19.3049 22.6211 19.3479C22.6098 19.7857 22.6098 20.2241 22.6211 20.6628C22.6211 20.7379 22.6956 20.8124 22.7377 20.8857C22.7443 20.897 22.7641 20.9001 22.7767 20.9076C23.0575 21.0729 23.328 21.3422 23.6213 21.3735C23.9044 21.4029 24.2122 21.1888 24.5073 21.0773C24.9726 20.9007 25.4354 20.7179 25.9007 20.5426C26.3293 20.3816 26.7128 20.5426 26.8469 20.9377C26.9809 21.3328 26.7867 21.6966 26.3726 21.8581C25.9801 22.0115 25.5857 22.1612 25.1469 22.3302C25.5539 22.5726 25.9254 22.7986 26.3041 23.0134C26.3515 23.0403 26.4345 23.0134 26.4976 22.9946C27.1282 22.8212 27.7599 22.6446 28.3887 22.4699C28.9032 22.3271 29.217 22.51 29.3571 23.0409C29.5627 23.8236 29.7658 24.6067 29.9666 25.3903C30.091 25.8774 29.9017 26.2187 29.4352 26.3508C28.6738 26.567 27.9124 26.7797 27.151 26.9889C26.6653 27.1216 26.3485 26.9306 26.2145 26.4253C26.039 25.7641 25.8749 25.0991 25.6933 24.4398C25.6607 24.3331 25.5944 24.241 25.5052 24.1787C25.177 23.9651 24.8373 23.771 24.4683 23.5525C24.5476 24.0246 24.6221 24.4535 24.6907 24.8831C24.779 25.4354 24.4346 25.8417 23.9393 25.7766C23.6387 25.7378 23.4187 25.5061 23.3586 25.1505C23.2318 24.3991 23.1055 23.6439 22.9907 22.8888C22.9637 22.7116 22.9048 22.5926 22.7437 22.51C22.5153 22.3929 22.2965 22.2539 22.0795 22.1148C22.0393 22.0817 21.99 22.0631 21.9388 22.0618C21.8876 22.0604 21.8374 22.0764 21.7957 22.1073C21.4429 22.3302 21.0786 22.5331 20.7282 22.7592C20.693 22.7873 20.6638 22.8226 20.6424 22.863C20.621 22.9034 20.6078 22.948 20.6037 22.994C20.5881 23.2903 20.5881 23.5874 20.6037 23.8837C20.6133 23.9865 20.6587 24.082 20.7312 24.1524C21.3028 24.6589 21.8829 25.1542 22.46 25.6551C22.8056 25.9551 22.8669 26.3884 22.6108 26.704C22.3548 27.0195 21.9394 27.0321 21.589 26.7309C21.2824 26.4673 20.977 26.2018 20.6699 25.9382C20.6469 25.9282 20.6229 25.9212 20.5983 25.9175C20.5983 26.3658 20.5935 26.806 20.6043 27.2462C20.6043 27.3088 20.6759 27.3765 20.7246 27.429C21.1898 27.9175 21.6587 28.4015 22.1251 28.8892C22.4666 29.2462 22.4702 29.6438 22.1312 29.9982C21.5749 30.5826 21.0163 31.162 20.4553 31.7364C20.344 31.8334 20.2259 31.9216 20.1018 32H19.7411Z" fill="#1AA4B1"/>
</g>
<g clip-path="url(#clip1_1_15128)">
<path d="M79.0012 20.139C78.8787 20.2423 78.7501 20.3383 78.6162 20.4264C77.6744 20.9761 76.7305 21.5218 75.7844 22.0636C75.3788 22.2971 75.1178 22.1468 75.1172 21.6823C75.1172 20.5595 75.1172 19.4368 75.1172 18.314C75.1172 17.8488 75.3782 17.6992 75.7844 17.9327C76.7567 18.4916 77.7276 19.053 78.697 19.6169C78.8043 19.6895 78.906 19.77 79.0012 19.8579V20.139Z" fill="#FFC978"/>
<path d="M67.1443 8C67.2442 8.11576 67.3369 8.23766 67.4216 8.365C67.9716 9.30829 68.5182 10.2541 69.0616 11.2024C69.305 11.625 69.1605 11.8835 68.6791 11.8835C67.5624 11.8835 66.4455 11.8835 65.3284 11.8835C64.8558 11.8835 64.7025 11.6275 64.9353 11.223C65.4953 10.2497 66.0587 9.2772 66.6254 8.30553C66.6981 8.19806 66.7784 8.09596 66.8657 8H67.1443Z" fill="#FFC978"/>
<path d="M67.0252 13.4012C70.6557 13.4181 73.6114 16.3901 73.5976 20.0082C73.5882 23.6463 70.6069 26.6139 66.9826 26.5945C63.3584 26.5751 60.3971 23.6037 60.4102 19.9863C60.4177 16.3494 63.3966 13.3843 67.0252 13.4012Z" fill="#FFC978"/>
<path d="M67.0085 28.112C67.5781 28.112 68.1471 28.112 68.7167 28.112C69.1373 28.112 69.295 28.3812 69.0866 28.7444C68.517 29.7373 67.9447 30.7292 67.3696 31.7201C67.1556 32.0889 66.8507 32.0958 66.6392 31.7289C66.0604 30.7322 65.4841 29.7336 64.9103 28.7331C64.71 28.3837 64.8702 28.1152 65.2771 28.1127C65.8548 28.1095 66.4313 28.112 67.0085 28.112Z" fill="#FFC978"/>
<path d="M58.8888 19.9775C58.8888 20.5472 58.8888 21.1163 58.8888 21.686C58.8888 22.1412 58.6266 22.2971 58.2385 22.0736C57.2603 21.5089 56.2822 20.9437 55.3041 20.3782C54.8966 20.1421 54.8991 19.8529 55.3091 19.6156C56.2889 19.0509 57.2672 18.4857 58.2441 17.9202C58.6197 17.7036 58.8863 17.8576 58.8882 18.2927C58.8907 18.8543 58.8888 19.4159 58.8888 19.9775Z" fill="#FFC978"/>
<path d="M58.422 12.1108C58.4158 11.8178 58.6254 11.66 58.914 11.7352C59.7809 11.9624 60.6454 12.1953 61.5111 12.4238C61.7821 12.4958 62.0537 12.5641 62.3248 12.6417C62.6841 12.7456 62.7686 13.0487 62.5044 13.3148C61.6798 14.1458 60.8524 14.9734 60.0219 15.7978C59.7528 16.0645 59.4586 15.9812 59.3559 15.6099C59.048 14.483 58.7469 13.3561 58.4439 12.2254C58.4347 12.1876 58.4273 12.1493 58.422 12.1108Z" fill="#FFC978"/>
<path d="M75.5792 12.1659C75.4972 12.4696 75.4008 12.8227 75.3063 13.1764C75.0953 13.9665 74.8875 14.7573 74.6747 15.5474C74.5495 16.0075 74.2685 16.0852 73.9355 15.7521C73.1426 14.9591 72.3481 14.1644 71.5519 13.368C71.2195 13.0349 71.2977 12.7526 71.7509 12.6317C72.8645 12.3337 73.9774 12.032 75.091 11.7364C75.3895 11.6569 75.6005 11.826 75.5792 12.1659Z" fill="#FFC978"/>
<path d="M58.4229 28.4357C58.5049 28.1314 58.6007 27.7789 58.6952 27.4252C58.9061 26.6351 59.1146 25.8437 59.3261 25.0543C59.4513 24.5822 59.7311 24.5096 60.0773 24.8564C60.8672 25.6444 61.6563 26.4335 62.4446 27.2236C62.7795 27.5592 62.7075 27.8447 62.2568 27.9661C61.1673 28.2608 60.0767 28.553 58.985 28.8427C58.6263 28.9416 58.4048 28.7976 58.4229 28.4357Z" fill="#FFC978"/>
<path d="M75.5825 28.4984C75.5781 28.7857 75.3766 28.9329 75.0937 28.8602C74.3544 28.6693 73.6183 28.4683 72.8809 28.2717C72.4891 28.1672 72.0979 28.0645 71.7067 27.9587C71.3155 27.8529 71.2303 27.5511 71.5189 27.2644C72.333 26.4463 73.1495 25.6299 73.9682 24.8151C74.2605 24.524 74.5497 24.6004 74.6567 25.003C74.9618 26.1228 75.2633 27.2437 75.5612 28.3656C75.5709 28.4094 75.578 28.4537 75.5825 28.4984Z" fill="#FFC978"/>
</g>
<defs>
<clipPath id="clip0_1_15128">
<rect width="20.16" height="24" fill="white" transform="matrix(-1 0 0 -1 30 32)"/>
</clipPath>
<clipPath id="clip1_1_15128">
<rect width="24" height="24" fill="white" transform="translate(55 8)"/>
</clipPath>
</defs>
</svg>
