<svg width="830" height="616" viewBox="0 0 830 616" fill="none" xmlns="http://www.w3.org/2000/svg">
<g clip-path="url(#clip0_1_10320)">
<path d="M830.001 1.36938H0.5V614.131H830.001V1.36938Z" fill="#F8F8F8"/>
<path d="M275.418 0L288.394 32.9871V60.9762L286.398 71.972L276.416 78.9692L275.418 86.9661L279.411 97.9618L276.416 102.96L257.45 112.956L258.449 115.955L266.434 116.954L267.432 119.953L258.449 125.951L256.452 139.945L259.447 143.944L263.44 149.942L264.937 157.439L260.944 164.436L255.953 170.434H244.973L234.991 177.431L232.995 185.428L230.998 196.423L230 206.42L230.998 213.417L236.987 216.416L240.98 223.413L246.969 233.409L248.966 255.401L247.968 262.398L240.98 275.393L232.995 287.388L235.989 300.383L234.991 321.375L259.946 344.366L272.922 355.362L275.917 369.356L312.85 387.349L334.811 402.343L338.803 399.344L346.789 401.344V415.338L349.784 421.336L362.76 420.336L369.747 428.333L375.737 429.333L391.708 443.327V458.321L399.693 459.321L400.692 474.315L404.684 481.313L410.673 483.312L421.654 481.313L435.628 483.312L449.603 481.313L456.59 482.312L470.565 495.307L473.56 499.305L483.542 498.306L488.533 500.305L494.522 501.305L499.513 494.307L511.491 492.308L522.471 495.307L550.421 505.303L564.396 507.302L573.379 523.296L581.365 526.295H588.352L599.333 520.297L610.313 526.295L618.298 523.296L636.266 536.291L658.226 541.289L672.201 544.288L682.183 557.283" stroke="#17A4B1" stroke-width="3" stroke-miterlimit="10" stroke-dasharray="6 6"/>
<path d="M259.361 167.075L276.001 183.299L285.983 184.298V190.296V194.294L300.956 212.287V231.28L306.945 239.277L302.953 248.273L310.938 261.268V268.266L315.929 277.262" stroke="#17A4B1" stroke-width="3" stroke-miterlimit="10" stroke-dasharray="6 6"/>
<path d="M301 232L296.5 241L288.5 243.5" stroke="#17A4B1" stroke-width="3" stroke-dasharray="6 6"/>
<path d="M280.992 76.3402L287.98 85.3367L296.963 87.3359L299.958 104.329L315.929 105.329L324.913 113.326L331.9 100.331L336.891 98.3317L347.871 84.3371L353.86 87.3359H360.848L376.32 70.8424L387.3 72.8416V68.8431L400.277 63.8451L408.262 65.8443L428.226 60.8463L431.221 62.8455L440.204 61.8459L446.194 65.8443H453.181L460.168 73.8412H464.161V69.8428L475.141 60.8463L474.143 34.8564L475.141 28.8587L480.132 21.8615L478.136 6.86729L489.116 8.86651L497.102 0.869629" stroke="#D4D4D4" stroke-miterlimit="10"/>
<path d="M501.094 128.82L495.105 125.821L493.109 121.822H487.12L485.123 114.825L476.14 106.828L478.136 95.8326L470.15 85.8365L482.129 81.838V74.8407L485.123 70.8423L484.125 63.845L475.141 60.8462" stroke="#D4D4D4" stroke-miterlimit="10"/>
<path d="M555.994 506.673L564.978 497.676L554.996 476.684L559.987 471.686L562.982 459.691L584.942 448.695L589.933 442.697H593.926L605.904 430.702L612.891 425.704" stroke="#D4D4D4" stroke-miterlimit="10"/>
<path d="M753.638 615.63L745.652 608.633L741.659 602.635L739.663 597.637L734.672 591.639L727.685 586.641L728.683 581.643L726.686 578.644L718.701 579.644L708.719 575.646L698.737 572.647L692.748 570.648L687.757 565.65L685.76 561.651L681.768 559.652" stroke="#D4D4D4" stroke-miterlimit="10"/>
<path d="M275.262 367.597L267.017 372.225H241.064L231.082 379.222L233.078 386.219L230.084 389.218L217.107 388.219L209.121 384.22H196.145L183.168 373.225L177.179 372.225L176.181 359.23L152.224 355.232L139.248 345.235L130.264 349.234H117.287L110.3 344.236L102.314 347.235V351.233L117.287 360.23L124.275 378.223L129.266 381.221L125.273 396.216L133.259 410.21L137.251 417.207L131.262 429.203L130.264 439.199L138.25 463.189L145.237 474.185L155.219 479.183L162.206 481.182L178.177 493.178L186.163 506.173L193.15 511.171L208.123 508.172L221.1 513.17L230.084 510.171L238.069 518.168" stroke="#D4D4D4" stroke-miterlimit="10"/>
<path d="M201.636 1.86938L199.64 41.8538L195.647 58.8472L197.643 74.841L192.652 86.8363L193.651 93.8336L198.642 98.8316L193.651 114.825L197.643 127.82L195.647 133.818L202.634 147.813L199.64 153.81L196.645 159.808V176.801L215.611 186.797L232.58 185.798" stroke="#D4D4D4" stroke-miterlimit="10"/>
<path d="M27.9492 162.807L33.9384 160.807L37.9312 152.811L46.9149 149.812L53.9023 142.814L50.9077 139.816V131.819L45.9167 130.819L41.924 124.821L42.9222 107.828L46.9149 100.831L42.9222 92.8339L49.9095 76.8401L78.8572 69.8428V62.8456C78.8572 62.8456 82.85 57.8475 83.8482 57.8475C84.8464 57.8475 104.81 54.8487 104.81 54.8487L112.796 56.8479L133.758 52.8495H140.745L141.744 58.8471H155.718L158.713 55.8483L173.686 51.8499L195.646 55.8483" stroke="#D4D4D4" stroke-miterlimit="10"/>
<path d="M139.748 63.8451L142.743 52.8494V46.8517V40.8541L151.726 22.8611V0.869629" stroke="#D4D4D4" stroke-miterlimit="10"/>
<path d="M0 58.8472H37.9314L39.9278 63.8452V70.8425L44.9188 73.8413L49.9098 76.8402" stroke="#D4D4D4" stroke-miterlimit="10"/>
<path d="M0.998047 20.862H13.9746L20.962 15.8639H46.9151L51.906 11.8655C51.906 11.8655 60.8898 23.8608 61.888 23.8608C62.8862 23.8608 74.8646 17.8632 74.8646 17.8632L86.8429 18.8628L98.8213 14.8643L104.81 8.86666H110.8L119.783 1.86938" stroke="#D4D4D4" stroke-miterlimit="10"/>
<path d="M575.958 125.821L567.973 136.817L568.971 140.815V145.813L572.964 156.809L571.966 167.805L569.969 179.8L576.957 192.795L585.94 210.788V217.785L591.929 235.778L597.919 242.775H584.942L583.944 236.778H579.951L578.953 221.784L571.966 205.79L569.969 198.793V195.794L561.984 182.799L564.978 173.802L562.982 169.804V163.806L563.98 154.81L561.984 148.812L562.982 142.814H555.994L553.998 140.815L550.005 142.814L547.011 140.815L541.021 142.814L531.039 140.815L520.059 135.817C520.059 135.817 513.072 130.819 512.074 130.819C511.076 130.819 502.092 127.82 502.092 127.82L506.085 126.821H511.076L519.061 131.819L526.049 135.817L536.03 136.817L543.018 140.815L549.007 134.818L553.998 135.817L559.987 133.818L565.976 134.818L575.958 125.821Z" fill="#17A4B1" fill-opacity="0.5"/>
<path d="M379.814 433.201L387.799 425.204V419.207L383.807 416.208L381.81 412.209H376.819L383.807 406.212L380.812 401.214L384.805 399.214L385.803 393.217L384.306 390.718L378.316 391.717L375.322 389.718L378.316 384.72L371.329 381.721V377.723L367.336 372.725L366.338 364.728L363.344 361.729L351.365 359.73V357.731V353.732L346.374 351.733V349.734V344.736V340.737L341.383 332.74L334.396 325.743L332.399 319.745L333.398 315.747L324.414 309.749L323.416 304.751L329.405 291.756L325.412 288.757L318.425 289.757L313.434 284.759L312.436 277.762" stroke="#17A4B1" stroke-opacity="0.5" stroke-miterlimit="10"/>
<path d="M408.203 483.622L409.261 487.68L412.256 491.678V495.677L410.259 500.675L411.257 505.673L415.25 510.671L416.248 514.669L417.247 519.668C417.247 519.668 413.254 518.668 413.254 519.668C413.254 520.667 410.259 523.666 409.261 523.666C408.263 523.666 405.268 526.665 405.268 526.665L404.27 532.662C404.27 532.662 402.274 535.661 402.274 536.661C402.274 537.661 399.279 541.659 399.279 541.659L395.286 543.658L392.292 545.657L382.31 546.657L374.324 547.657L371.33 545.657L370.331 544.658H367.337C367.337 544.658 364.342 543.658 364.342 544.658C364.342 545.657 362.346 547.657 362.346 547.657L358.353 545.657L354.36 543.658H352.364L346.375 545.657V547.657L344.378 549.656C343.38 550.655 340.385 551.655 340.385 551.655H332.4C332.4 551.655 328.407 550.655 328.407 549.656C328.407 548.656 323.416 547.657 323.416 547.657L322.418 548.656H316.429L313.434 550.655H312.436C311.438 550.655 309.441 550.655 308.443 549.656C307.176 548.574 305.843 547.572 304.45 546.657L303.452 544.658V540.659L300.458 538.66V537.661H296.465L291.474 535.661L286.483 533.662H280.494L276.501 530.663H272.508L267.517 529.664L266.519 527.664H263.524L259.532 525.665H256.537L255.539 526.665L249.55 524.666L248.551 522.666L247.553 518.668C247.553 518.668 244.559 518.668 244.559 517.668C244.559 516.669 237.571 516.669 237.571 516.669L236.573 519.668H231.582V522.666L225.593 524.666L223.597 527.664L222.598 531.663C222.598 531.663 220.602 532.662 220.602 533.662C220.602 534.662 217.607 536.661 217.607 536.661L214.613 539.66V550.655L215.611 552.655L213.615 560.652L210.62 566.649V570.648L207.625 574.646L208.624 575.646V581.643C208.451 582.689 208.114 583.701 207.625 584.642V587.641C207.625 588.641 206.627 591.639 206.627 592.639C206.627 593.639 205.629 595.638 206.627 596.638C207.625 597.637 208.624 600.636 209.622 600.636C210.62 600.636 209.622 603.635 210.62 603.635C212.121 603.884 213.513 604.581 214.613 605.634C215.611 606.634 216.609 606.634 216.609 607.633V610.632C216.609 611.632 213.615 613.631 213.615 613.631V615.63" stroke="#17A4B1" stroke-opacity="0.5" stroke-miterlimit="10"/>
</g>
<defs>
<clipPath id="clip0_1_10320">
<rect width="830" height="616" fill="white"/>
</clipPath>
</defs>
</svg>
